<mxfile host="app.diagrams.net" agent="Mozilla/5.0 (Windows NT 10.0; Win64; x64) AppleWebKit/537.36 (KHTML, like Gecko) Chrome/127.0.0.0 Safari/537.36 Edg/127.0.0.0 GLS/100.10.9245.92" version="24.7.6" pages="7">
  <diagram name="Cadastro Paciente" id="s5DOPzweTX6nVsNr9Y4V">
    <mxGraphModel dx="993" dy="702" grid="1" gridSize="10" guides="1" tooltips="1" connect="1" arrows="1" fold="1" page="0" pageScale="1" pageWidth="850" pageHeight="1100" math="0" shadow="0">
      <root>
        <mxCell id="0" />
        <mxCell id="1" parent="0" />
        <mxCell id="BZ8LiSOrt_Bf6uKzNcS--6" value="&lt;font color=&quot;#000000&quot; style=&quot;font-size: 16px; background-color: rgb(255, 255, 255);&quot;&gt;Pacientes&lt;/font&gt;" style="verticalLabelPosition=bottom;sketch=0;html=1;fillColor=#1ba1e2;strokeColor=#006EAF;verticalAlign=top;pointerEvents=1;align=center;shape=mxgraph.cisco_safe.people_places_things_icons.icon9;fontColor=#ffffff;" vertex="1" parent="1">
          <mxGeometry x="70" y="176.5" width="50" height="45" as="geometry" />
        </mxCell>
        <mxCell id="BZ8LiSOrt_Bf6uKzNcS--7" style="edgeStyle=orthogonalEdgeStyle;rounded=0;orthogonalLoop=1;jettySize=auto;html=1;entryX=0;entryY=0.5;entryDx=0;entryDy=0;entryPerimeter=0;" edge="1" parent="1">
          <mxGeometry relative="1" as="geometry">
            <mxPoint x="120" y="205.9999999999999" as="sourcePoint" />
            <mxPoint x="200" y="206" as="targetPoint" />
          </mxGeometry>
        </mxCell>
        <mxCell id="BZ8LiSOrt_Bf6uKzNcS--12" value="&lt;font style=&quot;font-size: 16px;&quot;&gt;Health&amp;amp;Med Portal&lt;/font&gt;" style="image;aspect=fixed;html=1;points=[];align=center;fontSize=12;image=img/lib/azure2/app_services/App_Service_Domains.svg;" vertex="1" parent="1">
          <mxGeometry x="207" y="180" width="65" height="52" as="geometry" />
        </mxCell>
        <mxCell id="BZ8LiSOrt_Bf6uKzNcS--17" style="edgeStyle=orthogonalEdgeStyle;rounded=0;orthogonalLoop=1;jettySize=auto;html=1;" edge="1" parent="1">
          <mxGeometry relative="1" as="geometry">
            <mxPoint x="470" y="204" as="sourcePoint" />
            <mxPoint x="560" y="204" as="targetPoint" />
            <Array as="points">
              <mxPoint x="560" y="204" />
              <mxPoint x="560" y="204" />
            </Array>
          </mxGeometry>
        </mxCell>
        <mxCell id="BZ8LiSOrt_Bf6uKzNcS--13" value="&lt;span style=&quot;font-size: 16px; background-color: rgb(255, 255, 255);&quot;&gt;Health&amp;amp;Med API&lt;/span&gt;" style="sketch=0;html=1;aspect=fixed;strokeColor=none;shadow=0;fillColor=#1BA1E2;verticalAlign=top;labelPosition=center;verticalLabelPosition=bottom;shape=mxgraph.gcp2.gear" vertex="1" parent="1">
          <mxGeometry x="400" y="164" width="70" height="70" as="geometry" />
        </mxCell>
        <mxCell id="BZ8LiSOrt_Bf6uKzNcS--14" style="edgeStyle=orthogonalEdgeStyle;rounded=0;orthogonalLoop=1;jettySize=auto;html=1;entryX=-0.012;entryY=0.603;entryDx=0;entryDy=0;entryPerimeter=0;" edge="1" parent="1" source="BZ8LiSOrt_Bf6uKzNcS--12" target="BZ8LiSOrt_Bf6uKzNcS--13">
          <mxGeometry relative="1" as="geometry" />
        </mxCell>
        <mxCell id="BZ8LiSOrt_Bf6uKzNcS--28" style="edgeStyle=orthogonalEdgeStyle;rounded=0;orthogonalLoop=1;jettySize=auto;html=1;" edge="1" parent="1">
          <mxGeometry relative="1" as="geometry">
            <mxPoint x="680" y="202.22222222222217" as="sourcePoint" />
            <mxPoint x="830" y="203" as="targetPoint" />
          </mxGeometry>
        </mxCell>
        <mxCell id="BZ8LiSOrt_Bf6uKzNcS--15" value="Post" style="html=1;whiteSpace=wrap;strokeColor=none;fillColor=#0079D6;labelPosition=center;verticalLabelPosition=middle;verticalAlign=top;align=center;fontSize=12;outlineConnect=0;spacingTop=-6;fontColor=#FFFFFF;sketch=0;shape=mxgraph.sitemap.post;" vertex="1" parent="1">
          <mxGeometry x="560" y="166" width="120" height="66.5" as="geometry" />
        </mxCell>
        <mxCell id="BZ8LiSOrt_Bf6uKzNcS--18" value="&lt;font style=&quot;font-size: 16px; background-color: rgb(255, 255, 255);&quot;&gt;/authentication/register&lt;/font&gt;" style="text;html=1;align=center;verticalAlign=middle;resizable=0;points=[];autosize=1;strokeColor=none;fillColor=none;" vertex="1" parent="1">
          <mxGeometry x="525" y="234" width="190" height="30" as="geometry" />
        </mxCell>
        <mxCell id="BZ8LiSOrt_Bf6uKzNcS--20" value="&lt;b&gt;&lt;font style=&quot;font-size: 14px;&quot;&gt;1&lt;/font&gt;&lt;/b&gt;" style="text;html=1;align=center;verticalAlign=middle;resizable=0;points=[];autosize=1;strokeColor=none;fillColor=#FFFFFF;" vertex="1" parent="1">
          <mxGeometry x="140" y="166" width="30" height="30" as="geometry" />
        </mxCell>
        <mxCell id="BZ8LiSOrt_Bf6uKzNcS--21" value="&lt;b&gt;&lt;font style=&quot;font-size: 14px;&quot;&gt;2&lt;/font&gt;&lt;/b&gt;" style="text;html=1;align=center;verticalAlign=middle;resizable=0;points=[];autosize=1;strokeColor=none;fillColor=#FFFFFF;" vertex="1" parent="1">
          <mxGeometry x="310" y="166" width="30" height="30" as="geometry" />
        </mxCell>
        <mxCell id="BZ8LiSOrt_Bf6uKzNcS--22" value="&lt;b&gt;&lt;font style=&quot;font-size: 14px;&quot;&gt;3&lt;/font&gt;&lt;/b&gt;" style="text;html=1;align=center;verticalAlign=middle;resizable=0;points=[];autosize=1;strokeColor=none;fillColor=#FFFFFF;" vertex="1" parent="1">
          <mxGeometry x="492" y="164" width="30" height="30" as="geometry" />
        </mxCell>
        <mxCell id="BZ8LiSOrt_Bf6uKzNcS--31" value="" style="rounded=1;whiteSpace=wrap;html=1;fillColor=default;" vertex="1" parent="1">
          <mxGeometry x="40" y="264" width="780" height="200" as="geometry" />
        </mxCell>
        <mxCell id="BZ8LiSOrt_Bf6uKzNcS--25" value="&lt;font style=&quot;font-size: 16px; background-color: rgb(255, 255, 255);&quot;&gt;Banco de Dados&lt;/font&gt;" style="sketch=0;outlineConnect=0;fontColor=#232F3E;gradientColor=none;fillColor=#1BA1E2;strokeColor=none;dashed=0;verticalLabelPosition=bottom;verticalAlign=top;align=center;html=1;fontSize=12;fontStyle=0;aspect=fixed;pointerEvents=1;shape=mxgraph.aws4.rds_sql_server_instance;" vertex="1" parent="1">
          <mxGeometry x="830" y="161" width="78" height="78" as="geometry" />
        </mxCell>
        <mxCell id="BZ8LiSOrt_Bf6uKzNcS--23" value="&lt;font style=&quot;font-size: 16px;&quot;&gt;&lt;font style=&quot;font-size: 16px;&quot;&gt;&lt;b style=&quot;&quot;&gt;1. &lt;/b&gt;Paciente acessa o &lt;b style=&quot;&quot;&gt;&quot;&lt;/b&gt;&lt;/font&gt;&lt;span style=&quot;background-color: rgb(255, 255, 255);&quot;&gt;Health&amp;amp;Med Portal&quot;;&lt;/span&gt;&lt;/font&gt;&lt;div style=&quot;font-size: 16px;&quot;&gt;&lt;font style=&quot;font-size: 16px;&quot;&gt;&lt;span style=&quot;background-color: rgb(255, 255, 255);&quot;&gt;&lt;b&gt;2.&lt;/b&gt;&amp;nbsp;Paciente inicia o processo de cadastro na plataforma fornecendo os seguintes dados.:&lt;br&gt;&lt;span style=&quot;white-space: pre;&quot;&gt;&#x9;&lt;/span&gt;2.1 Nome;&lt;br&gt;&lt;/span&gt;&lt;/font&gt;&lt;/div&gt;&lt;div style=&quot;font-size: 16px;&quot;&gt;&lt;font style=&quot;font-size: 16px;&quot;&gt;&lt;span style=&quot;background-color: rgb(255, 255, 255);&quot;&gt;&lt;span style=&quot;white-space: pre;&quot;&gt;&#x9;&lt;/span&gt;2.2 CPF;&lt;br&gt;&lt;/span&gt;&lt;/font&gt;&lt;/div&gt;&lt;div style=&quot;font-size: 16px;&quot;&gt;&lt;font style=&quot;font-size: 16px;&quot;&gt;&lt;span style=&quot;background-color: rgb(255, 255, 255);&quot;&gt;&lt;span style=&quot;white-space: pre;&quot;&gt;&#x9;&lt;/span&gt;2.3 Email;&lt;br&gt;&lt;/span&gt;&lt;/font&gt;&lt;/div&gt;&lt;div style=&quot;font-size: 16px;&quot;&gt;&lt;font style=&quot;font-size: 16px;&quot;&gt;&lt;span style=&quot;background-color: rgb(255, 255, 255);&quot;&gt;&lt;span style=&quot;white-space: pre;&quot;&gt;&#x9;&lt;/span&gt;2.4 Senha.&lt;br&gt;&lt;/span&gt;&lt;/font&gt;&lt;/div&gt;&lt;div style=&quot;font-size: 16px;&quot;&gt;&lt;font style=&quot;font-size: 16px;&quot;&gt;&lt;span style=&quot;background-color: rgb(255, 255, 255);&quot;&gt;&lt;b&gt;3.&lt;/b&gt; Os dados cadastrais são enviados para o Backend por meio do endpoint /authentication/register&lt;/span&gt;&lt;/font&gt;&lt;/div&gt;&lt;div style=&quot;font-size: 16px;&quot;&gt;&lt;font style=&quot;font-size: 16px;&quot;&gt;&lt;span style=&quot;background-color: rgb(255, 255, 255);&quot;&gt;&lt;b&gt;4.&lt;/b&gt; Os dados cadastrais são armazenados no Banco de Dados.&lt;/span&gt;&lt;/font&gt;&lt;/div&gt;" style="text;html=1;align=left;verticalAlign=middle;resizable=0;points=[];autosize=1;strokeColor=none;fillColor=none;" vertex="1" parent="1">
          <mxGeometry x="60" y="270" width="720" height="170" as="geometry" />
        </mxCell>
        <mxCell id="BZ8LiSOrt_Bf6uKzNcS--30" value="&lt;b&gt;&lt;font style=&quot;font-size: 14px;&quot;&gt;4&lt;/font&gt;&lt;/b&gt;" style="text;html=1;align=center;verticalAlign=middle;resizable=0;points=[];autosize=1;strokeColor=none;fillColor=#FFFFFF;" vertex="1" parent="1">
          <mxGeometry x="740" y="161" width="30" height="30" as="geometry" />
        </mxCell>
      </root>
    </mxGraphModel>
  </diagram>
  <diagram id="oLb_37ZOxFNBVNaTWmR2" name="VerificarConsultasAgendadas">
    <mxGraphModel dx="917" dy="648" grid="1" gridSize="10" guides="1" tooltips="1" connect="1" arrows="1" fold="1" page="0" pageScale="1" pageWidth="850" pageHeight="1100" math="0" shadow="0">
      <root>
        <mxCell id="0" />
        <mxCell id="1" parent="0" />
        <mxCell id="1OU9JyvooG2r9qnjTWIy-2" style="edgeStyle=orthogonalEdgeStyle;rounded=0;orthogonalLoop=1;jettySize=auto;html=1;" edge="1" parent="1" source="h-CT0vQ95eBD9AlP1Pv9-1" target="Lp1uUcnfecJDweDbkabt-1">
          <mxGeometry relative="1" as="geometry" />
        </mxCell>
        <mxCell id="h-CT0vQ95eBD9AlP1Pv9-1" value="&lt;font color=&quot;#000000&quot; style=&quot;font-size: 16px; background-color: rgb(255, 255, 255);&quot;&gt;Usuário&lt;/font&gt;" style="verticalLabelPosition=bottom;sketch=0;html=1;fillColor=#1ba1e2;strokeColor=#006EAF;verticalAlign=top;pointerEvents=1;align=center;shape=mxgraph.cisco_safe.people_places_things_icons.icon9;fontColor=#ffffff;" vertex="1" parent="1">
          <mxGeometry x="70" y="176.5" width="50" height="45" as="geometry" />
        </mxCell>
        <mxCell id="Lp1uUcnfecJDweDbkabt-1" value="&lt;font style=&quot;font-size: 16px;&quot;&gt;Health&amp;amp;Med Portal&lt;/font&gt;" style="image;aspect=fixed;html=1;points=[];align=center;fontSize=12;image=img/lib/azure2/app_services/App_Service_Domains.svg;" vertex="1" parent="1">
          <mxGeometry x="207" y="173" width="65" height="52" as="geometry" />
        </mxCell>
        <mxCell id="BuMvQdIemfCe5dnhin8y-1" value="&lt;span style=&quot;font-size: 16px; background-color: rgb(255, 255, 255);&quot;&gt;Health&amp;amp;Med API&lt;/span&gt;" style="sketch=0;html=1;aspect=fixed;strokeColor=none;shadow=0;fillColor=#1BA1E2;verticalAlign=top;labelPosition=center;verticalLabelPosition=bottom;shape=mxgraph.gcp2.gear" vertex="1" parent="1">
          <mxGeometry x="400" y="162" width="70" height="70" as="geometry" />
        </mxCell>
        <mxCell id="zYh588Kxc9T9VlM9T6Mr-1" value="Post" style="html=1;whiteSpace=wrap;strokeColor=none;fillColor=#0079D6;labelPosition=center;verticalLabelPosition=middle;verticalAlign=top;align=center;fontSize=12;outlineConnect=0;spacingTop=-6;fontColor=#FFFFFF;sketch=0;shape=mxgraph.sitemap.post;" vertex="1" parent="1">
          <mxGeometry x="560" y="164" width="120" height="66.5" as="geometry" />
        </mxCell>
        <mxCell id="QIechPWBpzoxGJdgvQaq-1" value="&lt;font style=&quot;font-size: 16px; background-color: rgb(255, 255, 255);&quot;&gt;/authentication/login&lt;/font&gt;" style="text;html=1;align=center;verticalAlign=middle;resizable=0;points=[];autosize=1;strokeColor=none;fillColor=none;" vertex="1" parent="1">
          <mxGeometry x="535" y="234" width="170" height="30" as="geometry" />
        </mxCell>
        <mxCell id="1OU9JyvooG2r9qnjTWIy-6" style="edgeStyle=orthogonalEdgeStyle;rounded=0;orthogonalLoop=1;jettySize=auto;html=1;" edge="1" parent="1" source="QIechPWBpzoxGJdgvQaq-2" target="1OU9JyvooG2r9qnjTWIy-1">
          <mxGeometry relative="1" as="geometry" />
        </mxCell>
        <mxCell id="QIechPWBpzoxGJdgvQaq-2" value="Get" style="html=1;whiteSpace=wrap;strokeColor=none;fillColor=#0079D6;labelPosition=center;verticalLabelPosition=middle;verticalAlign=top;align=center;fontSize=12;outlineConnect=0;spacingTop=-6;fontColor=#FFFFFF;sketch=0;shape=mxgraph.sitemap.post;" vertex="1" parent="1">
          <mxGeometry x="820" y="164" width="120" height="66.5" as="geometry" />
        </mxCell>
        <mxCell id="QIechPWBpzoxGJdgvQaq-3" value="&lt;font style=&quot;font-size: 16px; background-color: rgb(255, 255, 255);&quot;&gt;/doctor/{idUserDoctor}/appointments&lt;/font&gt;" style="text;html=1;align=center;verticalAlign=middle;resizable=0;points=[];autosize=1;strokeColor=none;fillColor=none;" vertex="1" parent="1">
          <mxGeometry x="740" y="234" width="280" height="30" as="geometry" />
        </mxCell>
        <mxCell id="1OU9JyvooG2r9qnjTWIy-1" value="&lt;font style=&quot;font-size: 16px; background-color: rgb(255, 255, 255);&quot;&gt;Banco de Dados&lt;/font&gt;" style="sketch=0;outlineConnect=0;fontColor=#232F3E;gradientColor=none;fillColor=#1BA1E2;strokeColor=none;dashed=0;verticalLabelPosition=bottom;verticalAlign=top;align=center;html=1;fontSize=12;fontStyle=0;aspect=fixed;pointerEvents=1;shape=mxgraph.aws4.rds_sql_server_instance;" vertex="1" parent="1">
          <mxGeometry x="1100" y="157.5" width="78" height="78" as="geometry" />
        </mxCell>
        <mxCell id="1OU9JyvooG2r9qnjTWIy-3" style="edgeStyle=orthogonalEdgeStyle;rounded=0;orthogonalLoop=1;jettySize=auto;html=1;entryX=-0.012;entryY=0.528;entryDx=0;entryDy=0;entryPerimeter=0;" edge="1" parent="1" source="Lp1uUcnfecJDweDbkabt-1" target="BuMvQdIemfCe5dnhin8y-1">
          <mxGeometry relative="1" as="geometry" />
        </mxCell>
        <mxCell id="1OU9JyvooG2r9qnjTWIy-4" style="edgeStyle=orthogonalEdgeStyle;rounded=0;orthogonalLoop=1;jettySize=auto;html=1;entryX=0;entryY=0.5;entryDx=0;entryDy=0;entryPerimeter=0;" edge="1" parent="1" source="BuMvQdIemfCe5dnhin8y-1" target="zYh588Kxc9T9VlM9T6Mr-1">
          <mxGeometry relative="1" as="geometry" />
        </mxCell>
        <mxCell id="1OU9JyvooG2r9qnjTWIy-5" style="edgeStyle=orthogonalEdgeStyle;rounded=0;orthogonalLoop=1;jettySize=auto;html=1;entryX=0;entryY=0.5;entryDx=0;entryDy=0;entryPerimeter=0;" edge="1" parent="1" source="zYh588Kxc9T9VlM9T6Mr-1" target="QIechPWBpzoxGJdgvQaq-2">
          <mxGeometry relative="1" as="geometry" />
        </mxCell>
        <mxCell id="1OU9JyvooG2r9qnjTWIy-7" style="edgeStyle=orthogonalEdgeStyle;rounded=0;orthogonalLoop=1;jettySize=auto;html=1;fillColor=#0050ef;strokeColor=#001DBC;" edge="1" parent="1">
          <mxGeometry relative="1" as="geometry">
            <mxPoint x="1140" y="270" as="sourcePoint" />
            <mxPoint x="240" y="250" as="targetPoint" />
            <Array as="points">
              <mxPoint x="1140" y="270" />
              <mxPoint x="1140" y="289" />
              <mxPoint x="780" y="289" />
              <mxPoint x="780" y="290" />
              <mxPoint x="240" y="290" />
            </Array>
          </mxGeometry>
        </mxCell>
        <mxCell id="1OU9JyvooG2r9qnjTWIy-8" style="edgeStyle=orthogonalEdgeStyle;rounded=0;orthogonalLoop=1;jettySize=auto;html=1;entryX=0.93;entryY=0.516;entryDx=0;entryDy=0;entryPerimeter=0;fillColor=#0050ef;strokeColor=#001DBC;" edge="1" parent="1">
          <mxGeometry relative="1" as="geometry">
            <mxPoint x="207" y="209" as="sourcePoint" />
            <mxPoint x="116.5" y="209.7199999999999" as="targetPoint" />
          </mxGeometry>
        </mxCell>
        <mxCell id="i4remf7AYss0wei9gL4z-1" value="&lt;b&gt;&lt;font style=&quot;font-size: 14px;&quot;&gt;1&lt;/font&gt;&lt;/b&gt;" style="text;html=1;align=center;verticalAlign=middle;resizable=0;points=[];autosize=1;strokeColor=none;fillColor=#FFFFFF;" vertex="1" parent="1">
          <mxGeometry x="140" y="166" width="30" height="30" as="geometry" />
        </mxCell>
        <mxCell id="i4remf7AYss0wei9gL4z-2" value="&lt;b&gt;&lt;font style=&quot;font-size: 14px;&quot;&gt;2&lt;/font&gt;&lt;/b&gt;" style="text;html=1;align=center;verticalAlign=middle;resizable=0;points=[];autosize=1;strokeColor=none;fillColor=#FFFFFF;" vertex="1" parent="1">
          <mxGeometry x="320" y="162" width="30" height="30" as="geometry" />
        </mxCell>
        <mxCell id="i4remf7AYss0wei9gL4z-3" value="&lt;b&gt;&lt;font style=&quot;font-size: 14px;&quot;&gt;2&lt;/font&gt;&lt;/b&gt;" style="text;html=1;align=center;verticalAlign=middle;resizable=0;points=[];autosize=1;strokeColor=none;fillColor=#FFFFFF;" vertex="1" parent="1">
          <mxGeometry x="493" y="157.5" width="30" height="30" as="geometry" />
        </mxCell>
        <mxCell id="i4remf7AYss0wei9gL4z-4" value="&lt;b&gt;&lt;font style=&quot;font-size: 14px;&quot;&gt;3&lt;/font&gt;&lt;/b&gt;" style="text;html=1;align=center;verticalAlign=middle;resizable=0;points=[];autosize=1;strokeColor=none;fillColor=#FFFFFF;" vertex="1" parent="1">
          <mxGeometry x="730" y="155.5" width="30" height="30" as="geometry" />
        </mxCell>
        <mxCell id="i4remf7AYss0wei9gL4z-5" value="&lt;b&gt;&lt;font style=&quot;font-size: 14px;&quot;&gt;4&lt;/font&gt;&lt;/b&gt;" style="text;html=1;align=center;verticalAlign=middle;resizable=0;points=[];autosize=1;strokeColor=none;fillColor=#FFFFFF;" vertex="1" parent="1">
          <mxGeometry x="1000" y="155.5" width="30" height="30" as="geometry" />
        </mxCell>
        <mxCell id="i4remf7AYss0wei9gL4z-6" value="&lt;b&gt;&lt;font style=&quot;font-size: 14px;&quot;&gt;5&lt;/font&gt;&lt;/b&gt;" style="text;html=1;align=center;verticalAlign=middle;resizable=0;points=[];autosize=1;strokeColor=none;fillColor=#FFFFFF;" vertex="1" parent="1">
          <mxGeometry x="680" y="300" width="30" height="30" as="geometry" />
        </mxCell>
        <mxCell id="i4remf7AYss0wei9gL4z-7" value="&lt;b&gt;&lt;font style=&quot;font-size: 14px;&quot;&gt;5&lt;/font&gt;&lt;/b&gt;" style="text;html=1;align=center;verticalAlign=middle;resizable=0;points=[];autosize=1;strokeColor=none;fillColor=#FFFFFF;" vertex="1" parent="1">
          <mxGeometry x="143" y="211" width="30" height="30" as="geometry" />
        </mxCell>
        <mxCell id="w4BOkkFshr-a3dLp5hrn-1" value="" style="rounded=1;whiteSpace=wrap;html=1;fillColor=default;" vertex="1" parent="1">
          <mxGeometry x="60" y="330" width="870" height="200" as="geometry" />
        </mxCell>
        <mxCell id="w4BOkkFshr-a3dLp5hrn-2" value="&lt;font style=&quot;font-size: 16px;&quot;&gt;&lt;font style=&quot;font-size: 16px;&quot;&gt;&lt;b style=&quot;&quot;&gt;1. &lt;/b&gt;Paciente/Médico acessa o &lt;/font&gt;&lt;span style=&quot;background-color: rgb(255, 255, 255);&quot;&gt;Health&amp;amp;Med Portal;&lt;/span&gt;&lt;/font&gt;&lt;div style=&quot;font-size: 16px;&quot;&gt;&lt;font style=&quot;font-size: 16px;&quot;&gt;&lt;span style=&quot;background-color: rgb(255, 255, 255);&quot;&gt;&lt;b&gt;2.&lt;/b&gt;&amp;nbsp;Paciente/Médico efetua login pelo endpoint &lt;b&gt;/authentication/login&lt;/b&gt; da Health&amp;amp;Med API;&lt;/span&gt;&lt;/font&gt;&lt;/div&gt;&lt;div style=&quot;font-size: 16px;&quot;&gt;&lt;font style=&quot;font-size: 16px;&quot;&gt;&lt;span style=&quot;background-color: rgb(255, 255, 255);&quot;&gt;&lt;b&gt;3.&lt;/b&gt; Paciente/Médico efetua a busca de consultas agendadas pelo endpoint&amp;nbsp;&amp;nbsp;&lt;/span&gt;&lt;/font&gt;&lt;span style=&quot;text-align: center; background-color: initial;&quot;&gt;&lt;b&gt;/doctor/{idUserDoctor}/appointments&lt;/b&gt;;&lt;/span&gt;&lt;/div&gt;&lt;div style=&quot;font-size: 16px;&quot;&gt;&lt;span style=&quot;text-align: center; background-color: initial;&quot;&gt;&lt;span style=&quot;white-space: pre;&quot;&gt;&#x9;&lt;/span&gt;3.1 {idUserDoctor} = Representa o médico no qual o paciente agendou a consulta;&lt;br&gt;&lt;/span&gt;&lt;/div&gt;&lt;div style=&quot;font-size: 16px;&quot;&gt;&lt;span style=&quot;text-align: center; background-color: initial;&quot;&gt;&lt;span style=&quot;white-space: pre;&quot;&gt;&#x9;&lt;/span&gt;3.2 Paciente/Médico tem a opção de especificar uma data para busca.&lt;br&gt;&lt;/span&gt;&lt;/div&gt;&lt;div style=&quot;font-size: 16px;&quot;&gt;&lt;span style=&quot;text-align: center; background-color: initial;&quot;&gt;&lt;b&gt;4.&lt;/b&gt; Informações de consultas agendadas são coletadas no Banco de Dados;&lt;/span&gt;&lt;/div&gt;&lt;div style=&quot;font-size: 16px;&quot;&gt;&lt;span style=&quot;text-align: center; background-color: initial;&quot;&gt;&lt;b&gt;5.&lt;/b&gt; Informações de consultas agendadas são disponibilizadas ao paciente/médico por meio do&amp;nbsp;&lt;/span&gt;&lt;span style=&quot;background-color: initial;&quot;&gt;Health&amp;amp;Med Portal.&lt;/span&gt;&lt;/div&gt;" style="text;html=1;align=left;verticalAlign=middle;resizable=0;points=[];autosize=1;strokeColor=none;fillColor=none;" vertex="1" parent="1">
          <mxGeometry x="80" y="346" width="840" height="150" as="geometry" />
        </mxCell>
      </root>
    </mxGraphModel>
  </diagram>
  <diagram name="VerificarHorarios" id="wyAkL_1c3ntyBjQtFCa7">
    <mxGraphModel dx="1192" dy="842" grid="1" gridSize="10" guides="1" tooltips="1" connect="1" arrows="1" fold="1" page="0" pageScale="1" pageWidth="850" pageHeight="1100" math="0" shadow="0">
      <root>
        <mxCell id="9h2SuWBzIGbCbxIBu20m-0" />
        <mxCell id="9h2SuWBzIGbCbxIBu20m-1" parent="9h2SuWBzIGbCbxIBu20m-0" />
        <mxCell id="9h2SuWBzIGbCbxIBu20m-2" style="edgeStyle=orthogonalEdgeStyle;rounded=0;orthogonalLoop=1;jettySize=auto;html=1;" edge="1" parent="9h2SuWBzIGbCbxIBu20m-1" source="9h2SuWBzIGbCbxIBu20m-3" target="9h2SuWBzIGbCbxIBu20m-4">
          <mxGeometry relative="1" as="geometry" />
        </mxCell>
        <mxCell id="9h2SuWBzIGbCbxIBu20m-3" value="&lt;font color=&quot;#000000&quot;&gt;&lt;span style=&quot;font-size: 16px;&quot;&gt;Usuário&lt;/span&gt;&lt;/font&gt;" style="verticalLabelPosition=bottom;sketch=0;html=1;fillColor=#1ba1e2;strokeColor=#006EAF;verticalAlign=top;pointerEvents=1;align=center;shape=mxgraph.cisco_safe.people_places_things_icons.icon9;fontColor=#ffffff;" vertex="1" parent="9h2SuWBzIGbCbxIBu20m-1">
          <mxGeometry x="70" y="176.5" width="50" height="45" as="geometry" />
        </mxCell>
        <mxCell id="9h2SuWBzIGbCbxIBu20m-4" value="&lt;font style=&quot;font-size: 16px;&quot;&gt;Health&amp;amp;Med Portal&lt;/font&gt;" style="image;aspect=fixed;html=1;points=[];align=center;fontSize=12;image=img/lib/azure2/app_services/App_Service_Domains.svg;" vertex="1" parent="9h2SuWBzIGbCbxIBu20m-1">
          <mxGeometry x="207" y="173" width="65" height="52" as="geometry" />
        </mxCell>
        <mxCell id="9h2SuWBzIGbCbxIBu20m-5" value="&lt;span style=&quot;font-size: 16px; background-color: rgb(255, 255, 255);&quot;&gt;Health&amp;amp;Med API&lt;/span&gt;" style="sketch=0;html=1;aspect=fixed;strokeColor=none;shadow=0;fillColor=#1BA1E2;verticalAlign=top;labelPosition=center;verticalLabelPosition=bottom;shape=mxgraph.gcp2.gear" vertex="1" parent="9h2SuWBzIGbCbxIBu20m-1">
          <mxGeometry x="400" y="162" width="70" height="70" as="geometry" />
        </mxCell>
        <mxCell id="9h2SuWBzIGbCbxIBu20m-6" value="Post" style="html=1;whiteSpace=wrap;strokeColor=none;fillColor=#0079D6;labelPosition=center;verticalLabelPosition=middle;verticalAlign=top;align=center;fontSize=12;outlineConnect=0;spacingTop=-6;fontColor=#FFFFFF;sketch=0;shape=mxgraph.sitemap.post;" vertex="1" parent="9h2SuWBzIGbCbxIBu20m-1">
          <mxGeometry x="560" y="164" width="120" height="66.5" as="geometry" />
        </mxCell>
        <mxCell id="9h2SuWBzIGbCbxIBu20m-7" value="&lt;font style=&quot;font-size: 16px; background-color: rgb(255, 255, 255);&quot;&gt;/authentication/login&lt;/font&gt;" style="text;html=1;align=center;verticalAlign=middle;resizable=0;points=[];autosize=1;strokeColor=none;fillColor=none;" vertex="1" parent="9h2SuWBzIGbCbxIBu20m-1">
          <mxGeometry x="535" y="234" width="170" height="30" as="geometry" />
        </mxCell>
        <mxCell id="9h2SuWBzIGbCbxIBu20m-8" style="edgeStyle=orthogonalEdgeStyle;rounded=0;orthogonalLoop=1;jettySize=auto;html=1;" edge="1" parent="9h2SuWBzIGbCbxIBu20m-1" source="9h2SuWBzIGbCbxIBu20m-9" target="9h2SuWBzIGbCbxIBu20m-11">
          <mxGeometry relative="1" as="geometry" />
        </mxCell>
        <mxCell id="9h2SuWBzIGbCbxIBu20m-9" value="Get" style="html=1;whiteSpace=wrap;strokeColor=none;fillColor=#0079D6;labelPosition=center;verticalLabelPosition=middle;verticalAlign=top;align=center;fontSize=12;outlineConnect=0;spacingTop=-6;fontColor=#FFFFFF;sketch=0;shape=mxgraph.sitemap.post;" vertex="1" parent="9h2SuWBzIGbCbxIBu20m-1">
          <mxGeometry x="820" y="164" width="120" height="66.5" as="geometry" />
        </mxCell>
        <mxCell id="9h2SuWBzIGbCbxIBu20m-10" value="&lt;font style=&quot;font-size: 16px; background-color: rgb(255, 255, 255);&quot;&gt;/schedules&lt;/font&gt;" style="text;html=1;align=center;verticalAlign=middle;resizable=0;points=[];autosize=1;strokeColor=none;fillColor=none;" vertex="1" parent="9h2SuWBzIGbCbxIBu20m-1">
          <mxGeometry x="830" y="234" width="100" height="30" as="geometry" />
        </mxCell>
        <mxCell id="9h2SuWBzIGbCbxIBu20m-11" value="&lt;font style=&quot;font-size: 16px; background-color: rgb(255, 255, 255);&quot;&gt;Banco de Dados&lt;/font&gt;" style="sketch=0;outlineConnect=0;fontColor=#232F3E;gradientColor=none;fillColor=#1BA1E2;strokeColor=none;dashed=0;verticalLabelPosition=bottom;verticalAlign=top;align=center;html=1;fontSize=12;fontStyle=0;aspect=fixed;pointerEvents=1;shape=mxgraph.aws4.rds_sql_server_instance;" vertex="1" parent="9h2SuWBzIGbCbxIBu20m-1">
          <mxGeometry x="1100" y="157.5" width="78" height="78" as="geometry" />
        </mxCell>
        <mxCell id="9h2SuWBzIGbCbxIBu20m-12" style="edgeStyle=orthogonalEdgeStyle;rounded=0;orthogonalLoop=1;jettySize=auto;html=1;entryX=-0.012;entryY=0.528;entryDx=0;entryDy=0;entryPerimeter=0;" edge="1" parent="9h2SuWBzIGbCbxIBu20m-1" source="9h2SuWBzIGbCbxIBu20m-4" target="9h2SuWBzIGbCbxIBu20m-5">
          <mxGeometry relative="1" as="geometry" />
        </mxCell>
        <mxCell id="9h2SuWBzIGbCbxIBu20m-13" style="edgeStyle=orthogonalEdgeStyle;rounded=0;orthogonalLoop=1;jettySize=auto;html=1;entryX=0;entryY=0.5;entryDx=0;entryDy=0;entryPerimeter=0;" edge="1" parent="9h2SuWBzIGbCbxIBu20m-1" source="9h2SuWBzIGbCbxIBu20m-5" target="9h2SuWBzIGbCbxIBu20m-6">
          <mxGeometry relative="1" as="geometry" />
        </mxCell>
        <mxCell id="9h2SuWBzIGbCbxIBu20m-14" style="edgeStyle=orthogonalEdgeStyle;rounded=0;orthogonalLoop=1;jettySize=auto;html=1;entryX=0;entryY=0.5;entryDx=0;entryDy=0;entryPerimeter=0;" edge="1" parent="9h2SuWBzIGbCbxIBu20m-1" source="9h2SuWBzIGbCbxIBu20m-6" target="9h2SuWBzIGbCbxIBu20m-9">
          <mxGeometry relative="1" as="geometry" />
        </mxCell>
        <mxCell id="9h2SuWBzIGbCbxIBu20m-15" style="edgeStyle=orthogonalEdgeStyle;rounded=0;orthogonalLoop=1;jettySize=auto;html=1;fillColor=#0050ef;strokeColor=#001DBC;" edge="1" parent="9h2SuWBzIGbCbxIBu20m-1">
          <mxGeometry relative="1" as="geometry">
            <mxPoint x="1140" y="270" as="sourcePoint" />
            <mxPoint x="240" y="250" as="targetPoint" />
            <Array as="points">
              <mxPoint x="1140" y="270" />
              <mxPoint x="1140" y="289" />
              <mxPoint x="780" y="289" />
              <mxPoint x="780" y="290" />
              <mxPoint x="240" y="290" />
            </Array>
          </mxGeometry>
        </mxCell>
        <mxCell id="9h2SuWBzIGbCbxIBu20m-16" style="edgeStyle=orthogonalEdgeStyle;rounded=0;orthogonalLoop=1;jettySize=auto;html=1;entryX=0.93;entryY=0.516;entryDx=0;entryDy=0;entryPerimeter=0;fillColor=#0050ef;strokeColor=#001DBC;" edge="1" parent="9h2SuWBzIGbCbxIBu20m-1">
          <mxGeometry relative="1" as="geometry">
            <mxPoint x="207" y="209" as="sourcePoint" />
            <mxPoint x="116.5" y="209.7199999999999" as="targetPoint" />
          </mxGeometry>
        </mxCell>
        <mxCell id="9h2SuWBzIGbCbxIBu20m-17" value="&lt;b&gt;&lt;font style=&quot;font-size: 14px;&quot;&gt;1&lt;/font&gt;&lt;/b&gt;" style="text;html=1;align=center;verticalAlign=middle;resizable=0;points=[];autosize=1;strokeColor=none;fillColor=#FFFFFF;" vertex="1" parent="9h2SuWBzIGbCbxIBu20m-1">
          <mxGeometry x="140" y="166" width="30" height="30" as="geometry" />
        </mxCell>
        <mxCell id="9h2SuWBzIGbCbxIBu20m-18" value="&lt;b&gt;&lt;font style=&quot;font-size: 14px;&quot;&gt;2&lt;/font&gt;&lt;/b&gt;" style="text;html=1;align=center;verticalAlign=middle;resizable=0;points=[];autosize=1;strokeColor=none;fillColor=#FFFFFF;" vertex="1" parent="9h2SuWBzIGbCbxIBu20m-1">
          <mxGeometry x="320" y="162" width="30" height="30" as="geometry" />
        </mxCell>
        <mxCell id="9h2SuWBzIGbCbxIBu20m-19" value="&lt;b&gt;&lt;font style=&quot;font-size: 14px;&quot;&gt;2&lt;/font&gt;&lt;/b&gt;" style="text;html=1;align=center;verticalAlign=middle;resizable=0;points=[];autosize=1;strokeColor=none;fillColor=#FFFFFF;" vertex="1" parent="9h2SuWBzIGbCbxIBu20m-1">
          <mxGeometry x="493" y="157.5" width="30" height="30" as="geometry" />
        </mxCell>
        <mxCell id="9h2SuWBzIGbCbxIBu20m-20" value="&lt;b&gt;&lt;font style=&quot;font-size: 14px;&quot;&gt;3&lt;/font&gt;&lt;/b&gt;" style="text;html=1;align=center;verticalAlign=middle;resizable=0;points=[];autosize=1;strokeColor=none;fillColor=#FFFFFF;" vertex="1" parent="9h2SuWBzIGbCbxIBu20m-1">
          <mxGeometry x="730" y="155.5" width="30" height="30" as="geometry" />
        </mxCell>
        <mxCell id="9h2SuWBzIGbCbxIBu20m-21" value="&lt;b&gt;&lt;font style=&quot;font-size: 14px;&quot;&gt;4&lt;/font&gt;&lt;/b&gt;" style="text;html=1;align=center;verticalAlign=middle;resizable=0;points=[];autosize=1;strokeColor=none;fillColor=#FFFFFF;" vertex="1" parent="9h2SuWBzIGbCbxIBu20m-1">
          <mxGeometry x="1000" y="155.5" width="30" height="30" as="geometry" />
        </mxCell>
        <mxCell id="9h2SuWBzIGbCbxIBu20m-22" value="&lt;b&gt;&lt;font style=&quot;font-size: 14px;&quot;&gt;5&lt;/font&gt;&lt;/b&gt;" style="text;html=1;align=center;verticalAlign=middle;resizable=0;points=[];autosize=1;strokeColor=none;fillColor=#FFFFFF;" vertex="1" parent="9h2SuWBzIGbCbxIBu20m-1">
          <mxGeometry x="680" y="300" width="30" height="30" as="geometry" />
        </mxCell>
        <mxCell id="9h2SuWBzIGbCbxIBu20m-23" value="&lt;b&gt;&lt;font style=&quot;font-size: 14px;&quot;&gt;5&lt;/font&gt;&lt;/b&gt;" style="text;html=1;align=center;verticalAlign=middle;resizable=0;points=[];autosize=1;strokeColor=none;fillColor=#FFFFFF;" vertex="1" parent="9h2SuWBzIGbCbxIBu20m-1">
          <mxGeometry x="143" y="211" width="30" height="30" as="geometry" />
        </mxCell>
        <mxCell id="9h2SuWBzIGbCbxIBu20m-24" value="" style="rounded=1;whiteSpace=wrap;html=1;fillColor=default;" vertex="1" parent="9h2SuWBzIGbCbxIBu20m-1">
          <mxGeometry x="60" y="330" width="870" height="200" as="geometry" />
        </mxCell>
        <mxCell id="9h2SuWBzIGbCbxIBu20m-25" value="&lt;font style=&quot;font-size: 16px;&quot;&gt;&lt;font style=&quot;font-size: 16px;&quot;&gt;&lt;b style=&quot;&quot;&gt;1. &lt;/b&gt;Paciente/Médico acessa o &lt;/font&gt;&lt;span style=&quot;background-color: rgb(255, 255, 255);&quot;&gt;Health&amp;amp;Med Portal;&lt;/span&gt;&lt;/font&gt;&lt;div style=&quot;font-size: 16px;&quot;&gt;&lt;font style=&quot;font-size: 16px;&quot;&gt;&lt;span style=&quot;background-color: rgb(255, 255, 255);&quot;&gt;&lt;b&gt;2.&lt;/b&gt;&amp;nbsp;Paciente/Médico efetua login pelo endpoint &lt;b&gt;/authentication/login&lt;/b&gt; da Health&amp;amp;Med API;&lt;/span&gt;&lt;/font&gt;&lt;/div&gt;&lt;div style=&quot;font-size: 16px;&quot;&gt;&lt;font style=&quot;font-size: 16px;&quot;&gt;&lt;span style=&quot;background-color: rgb(255, 255, 255);&quot;&gt;&lt;b&gt;3.&lt;/b&gt; Paciente/Médico efetua a busca de horários disponíveis para agendamento pelo endpoint&amp;nbsp;&amp;nbsp;&lt;/span&gt;&lt;/font&gt;&lt;span style=&quot;text-align: center; background-color: initial;&quot;&gt;&lt;b&gt;/schedules&lt;/b&gt;;&lt;/span&gt;&lt;/div&gt;&lt;div style=&quot;font-size: 16px;&quot;&gt;&lt;span style=&quot;text-align: center; background-color: initial;&quot;&gt;&lt;span style=&quot;white-space: pre;&quot;&gt;&#x9;&lt;/span&gt;3.1 Se necessário o paciente/médico pode filtrar somente um horário de agendamento específico. Vide abaixo.:&lt;/span&gt;&lt;/div&gt;&lt;div style=&quot;font-size: 16px;&quot;&gt;&lt;span style=&quot;text-align: center; background-color: initial;&quot;&gt;&lt;span style=&quot;white-space: pre;&quot;&gt;&#x9;&lt;/span&gt;&lt;span style=&quot;white-space: pre;&quot;&gt;&#x9;&lt;/span&gt;&amp;nbsp;&lt;b&gt;&amp;nbsp;/&lt;/b&gt;&lt;/span&gt;&lt;b style=&quot;background-color: initial; text-align: center;&quot;&gt;schedules/&lt;/b&gt;&lt;span style=&quot;text-align: center; background-color: initial;&quot;&gt;&lt;b&gt;{idSchedule}&lt;/b&gt;&lt;/span&gt;&lt;/div&gt;&lt;div style=&quot;font-size: 16px;&quot;&gt;&lt;b style=&quot;background-color: initial; text-align: center;&quot;&gt;4.&lt;/b&gt;&lt;span style=&quot;background-color: initial; text-align: center;&quot;&gt; Informações de horários disponíveis são coletadas no Banco de Dados;&lt;/span&gt;&lt;/div&gt;&lt;div style=&quot;font-size: 16px;&quot;&gt;&lt;span style=&quot;text-align: center; background-color: initial;&quot;&gt;&lt;b&gt;5.&lt;/b&gt; Informações de&amp;nbsp;&lt;/span&gt;&lt;span style=&quot;text-align: center;&quot;&gt;horários disponíveis&amp;nbsp;&lt;/span&gt;&lt;span style=&quot;text-align: center; background-color: initial;&quot;&gt;são disponibilizadas ao paciente/médico por meio do&amp;nbsp;&lt;/span&gt;&lt;span style=&quot;background-color: initial;&quot;&gt;Health&amp;amp;Med Portal.&lt;/span&gt;&lt;/div&gt;" style="text;html=1;align=left;verticalAlign=middle;resizable=0;points=[];autosize=1;strokeColor=none;fillColor=none;" vertex="1" parent="9h2SuWBzIGbCbxIBu20m-1">
          <mxGeometry x="80" y="346" width="850" height="150" as="geometry" />
        </mxCell>
      </root>
    </mxGraphModel>
  </diagram>
  <diagram id="w-FD-84Zto2cZ-SabrYq" name="Cadastro Médico">
    <mxGraphModel dx="596" dy="421" grid="1" gridSize="10" guides="1" tooltips="1" connect="1" arrows="1" fold="1" page="0" pageScale="1" pageWidth="850" pageHeight="1100" math="0" shadow="0">
      <root>
        <mxCell id="0" />
        <mxCell id="1" parent="0" />
        <mxCell id="BU7ynTNJwo3k6nDy4r0D-2" style="edgeStyle=orthogonalEdgeStyle;rounded=0;orthogonalLoop=1;jettySize=auto;html=1;entryX=0;entryY=0.5;entryDx=0;entryDy=0;entryPerimeter=0;" edge="1" parent="1">
          <mxGeometry relative="1" as="geometry">
            <mxPoint x="120" y="205.9999999999999" as="sourcePoint" />
            <mxPoint x="200" y="206" as="targetPoint" />
          </mxGeometry>
        </mxCell>
        <mxCell id="BU7ynTNJwo3k6nDy4r0D-3" value="&lt;font style=&quot;font-size: 16px;&quot;&gt;Health&amp;amp;Med Portal&lt;/font&gt;" style="image;aspect=fixed;html=1;points=[];align=center;fontSize=12;image=img/lib/azure2/app_services/App_Service_Domains.svg;" vertex="1" parent="1">
          <mxGeometry x="207" y="180" width="65" height="52" as="geometry" />
        </mxCell>
        <mxCell id="BU7ynTNJwo3k6nDy4r0D-4" style="edgeStyle=orthogonalEdgeStyle;rounded=0;orthogonalLoop=1;jettySize=auto;html=1;" edge="1" parent="1">
          <mxGeometry relative="1" as="geometry">
            <mxPoint x="470" y="204" as="sourcePoint" />
            <mxPoint x="560" y="204" as="targetPoint" />
            <Array as="points">
              <mxPoint x="560" y="204" />
              <mxPoint x="560" y="204" />
            </Array>
          </mxGeometry>
        </mxCell>
        <mxCell id="BU7ynTNJwo3k6nDy4r0D-5" value="&lt;span style=&quot;font-size: 16px; background-color: rgb(255, 255, 255);&quot;&gt;Health&amp;amp;Med API&lt;/span&gt;" style="sketch=0;html=1;aspect=fixed;strokeColor=none;shadow=0;fillColor=#1BA1E2;verticalAlign=top;labelPosition=center;verticalLabelPosition=bottom;shape=mxgraph.gcp2.gear" vertex="1" parent="1">
          <mxGeometry x="400" y="164" width="70" height="70" as="geometry" />
        </mxCell>
        <mxCell id="BU7ynTNJwo3k6nDy4r0D-6" style="edgeStyle=orthogonalEdgeStyle;rounded=0;orthogonalLoop=1;jettySize=auto;html=1;entryX=-0.012;entryY=0.603;entryDx=0;entryDy=0;entryPerimeter=0;" edge="1" parent="1" source="BU7ynTNJwo3k6nDy4r0D-3" target="BU7ynTNJwo3k6nDy4r0D-5">
          <mxGeometry relative="1" as="geometry" />
        </mxCell>
        <mxCell id="BU7ynTNJwo3k6nDy4r0D-7" style="edgeStyle=orthogonalEdgeStyle;rounded=0;orthogonalLoop=1;jettySize=auto;html=1;" edge="1" parent="1">
          <mxGeometry relative="1" as="geometry">
            <mxPoint x="680" y="202.22222222222217" as="sourcePoint" />
            <mxPoint x="830" y="203" as="targetPoint" />
          </mxGeometry>
        </mxCell>
        <mxCell id="BU7ynTNJwo3k6nDy4r0D-8" value="Post" style="html=1;whiteSpace=wrap;strokeColor=none;fillColor=#0079D6;labelPosition=center;verticalLabelPosition=middle;verticalAlign=top;align=center;fontSize=12;outlineConnect=0;spacingTop=-6;fontColor=#FFFFFF;sketch=0;shape=mxgraph.sitemap.post;" vertex="1" parent="1">
          <mxGeometry x="560" y="166" width="120" height="66.5" as="geometry" />
        </mxCell>
        <mxCell id="BU7ynTNJwo3k6nDy4r0D-9" value="&lt;font style=&quot;font-size: 16px; background-color: rgb(255, 255, 255);&quot;&gt;/authentication/register&lt;/font&gt;" style="text;html=1;align=center;verticalAlign=middle;resizable=0;points=[];autosize=1;strokeColor=none;fillColor=none;" vertex="1" parent="1">
          <mxGeometry x="525" y="234" width="190" height="30" as="geometry" />
        </mxCell>
        <mxCell id="BU7ynTNJwo3k6nDy4r0D-10" value="&lt;b&gt;&lt;font style=&quot;font-size: 14px;&quot;&gt;1&lt;/font&gt;&lt;/b&gt;" style="text;html=1;align=center;verticalAlign=middle;resizable=0;points=[];autosize=1;strokeColor=none;fillColor=#FFFFFF;" vertex="1" parent="1">
          <mxGeometry x="140" y="166" width="30" height="30" as="geometry" />
        </mxCell>
        <mxCell id="BU7ynTNJwo3k6nDy4r0D-11" value="&lt;b&gt;&lt;font style=&quot;font-size: 14px;&quot;&gt;2&lt;/font&gt;&lt;/b&gt;" style="text;html=1;align=center;verticalAlign=middle;resizable=0;points=[];autosize=1;strokeColor=none;fillColor=#FFFFFF;" vertex="1" parent="1">
          <mxGeometry x="310" y="166" width="30" height="30" as="geometry" />
        </mxCell>
        <mxCell id="BU7ynTNJwo3k6nDy4r0D-12" value="&lt;b&gt;&lt;font style=&quot;font-size: 14px;&quot;&gt;3&lt;/font&gt;&lt;/b&gt;" style="text;html=1;align=center;verticalAlign=middle;resizable=0;points=[];autosize=1;strokeColor=none;fillColor=#FFFFFF;" vertex="1" parent="1">
          <mxGeometry x="492" y="164" width="30" height="30" as="geometry" />
        </mxCell>
        <mxCell id="BU7ynTNJwo3k6nDy4r0D-13" value="" style="rounded=1;whiteSpace=wrap;html=1;fillColor=default;" vertex="1" parent="1">
          <mxGeometry x="40" y="264" width="780" height="200" as="geometry" />
        </mxCell>
        <mxCell id="BU7ynTNJwo3k6nDy4r0D-14" value="&lt;font style=&quot;font-size: 16px; background-color: rgb(255, 255, 255);&quot;&gt;Banco de Dados&lt;/font&gt;" style="sketch=0;outlineConnect=0;fontColor=#232F3E;gradientColor=none;fillColor=#1BA1E2;strokeColor=none;dashed=0;verticalLabelPosition=bottom;verticalAlign=top;align=center;html=1;fontSize=12;fontStyle=0;aspect=fixed;pointerEvents=1;shape=mxgraph.aws4.rds_sql_server_instance;" vertex="1" parent="1">
          <mxGeometry x="830" y="161" width="78" height="78" as="geometry" />
        </mxCell>
        <mxCell id="BU7ynTNJwo3k6nDy4r0D-15" value="&lt;font style=&quot;font-size: 16px;&quot;&gt;&lt;font style=&quot;font-size: 16px;&quot;&gt;&lt;b&gt;1. &lt;/b&gt;Médico&amp;nbsp;acessa o &lt;b style=&quot;&quot;&gt;&quot;&lt;/b&gt;&lt;/font&gt;&lt;span style=&quot;background-color: rgb(255, 255, 255);&quot;&gt;Health&amp;amp;Med Portal&quot;;&lt;/span&gt;&lt;/font&gt;&lt;div style=&quot;font-size: 16px;&quot;&gt;&lt;font style=&quot;font-size: 16px;&quot;&gt;&lt;span style=&quot;background-color: rgb(255, 255, 255);&quot;&gt;&lt;b&gt;2.&lt;/b&gt;&amp;nbsp;&lt;/span&gt;Médico&amp;nbsp;&lt;span style=&quot;background-color: rgb(255, 255, 255);&quot;&gt;inicia o processo de cadastro na plataforma fornecendo os seguintes dados.:&lt;br&gt;&lt;span style=&quot;white-space: pre;&quot;&gt;&#x9;&lt;/span&gt;2.1 Nome;&lt;br&gt;&lt;/span&gt;&lt;/font&gt;&lt;/div&gt;&lt;div style=&quot;font-size: 16px;&quot;&gt;&lt;font style=&quot;font-size: 16px;&quot;&gt;&lt;span style=&quot;background-color: rgb(255, 255, 255);&quot;&gt;&lt;span style=&quot;white-space: pre;&quot;&gt;&#x9;&lt;/span&gt;2.2 CPF;&lt;br&gt;&lt;/span&gt;&lt;/font&gt;&lt;/div&gt;&lt;div style=&quot;font-size: 16px;&quot;&gt;&lt;font style=&quot;font-size: 16px;&quot;&gt;&lt;span style=&quot;background-color: rgb(255, 255, 255);&quot;&gt;&lt;span style=&quot;white-space: pre;&quot;&gt;&#x9;&lt;/span&gt;2.3 CRM;&lt;br&gt;&lt;/span&gt;&lt;/font&gt;&lt;/div&gt;&lt;div style=&quot;font-size: 16px;&quot;&gt;&lt;font style=&quot;font-size: 16px;&quot;&gt;&lt;span style=&quot;background-color: rgb(255, 255, 255);&quot;&gt;&lt;span style=&quot;white-space: pre;&quot;&gt;&#x9;&lt;/span&gt;2.4 Email;&lt;br&gt;&lt;/span&gt;&lt;/font&gt;&lt;/div&gt;&lt;div style=&quot;font-size: 16px;&quot;&gt;&lt;font style=&quot;font-size: 16px;&quot;&gt;&lt;span style=&quot;background-color: rgb(255, 255, 255);&quot;&gt;&lt;span style=&quot;white-space: pre;&quot;&gt;&#x9;&lt;/span&gt;2.5 Senha.&lt;br&gt;&lt;/span&gt;&lt;/font&gt;&lt;/div&gt;&lt;div style=&quot;font-size: 16px;&quot;&gt;&lt;font style=&quot;font-size: 16px;&quot;&gt;&lt;span style=&quot;background-color: rgb(255, 255, 255);&quot;&gt;&lt;b&gt;3.&lt;/b&gt; Os dados cadastrais são enviados para o Backend por meio do endpoint /authentication/register&lt;/span&gt;&lt;/font&gt;&lt;/div&gt;&lt;div style=&quot;font-size: 16px;&quot;&gt;&lt;font style=&quot;font-size: 16px;&quot;&gt;&lt;span style=&quot;background-color: rgb(255, 255, 255);&quot;&gt;&lt;b&gt;4.&lt;/b&gt; Os dados cadastrais são armazenados no Banco de Dados.&lt;/span&gt;&lt;/font&gt;&lt;/div&gt;" style="text;html=1;align=left;verticalAlign=middle;resizable=0;points=[];autosize=1;strokeColor=none;fillColor=none;" vertex="1" parent="1">
          <mxGeometry x="60" y="267" width="720" height="190" as="geometry" />
        </mxCell>
        <mxCell id="BU7ynTNJwo3k6nDy4r0D-16" value="&lt;b&gt;&lt;font style=&quot;font-size: 14px;&quot;&gt;4&lt;/font&gt;&lt;/b&gt;" style="text;html=1;align=center;verticalAlign=middle;resizable=0;points=[];autosize=1;strokeColor=none;fillColor=#FFFFFF;" vertex="1" parent="1">
          <mxGeometry x="740" y="161" width="30" height="30" as="geometry" />
        </mxCell>
        <mxCell id="BU7ynTNJwo3k6nDy4r0D-18" value="&lt;font style=&quot;font-size: 15px; background-color: rgb(255, 255, 255);&quot;&gt;Médico&lt;/font&gt;" style="shape=mxgraph.signs.healthcare.care_staff_area;html=1;pointerEvents=1;fillColor=#1BA1E2;strokeColor=none;verticalLabelPosition=bottom;verticalAlign=top;align=center;" vertex="1" parent="1">
          <mxGeometry x="50" y="164" width="67" height="72" as="geometry" />
        </mxCell>
      </root>
    </mxGraphModel>
  </diagram>
  <diagram name="Agendamento Consultas" id="rriXxyYrXR0-88xU9KUf">
    <mxGraphModel dx="701" dy="495" grid="1" gridSize="10" guides="1" tooltips="1" connect="1" arrows="1" fold="1" page="0" pageScale="1" pageWidth="850" pageHeight="1100" math="0" shadow="0">
      <root>
        <mxCell id="OFr9_PAlfPfPc9i0mVIv-0" />
        <mxCell id="OFr9_PAlfPfPc9i0mVIv-1" parent="OFr9_PAlfPfPc9i0mVIv-0" />
        <mxCell id="OFr9_PAlfPfPc9i0mVIv-2" style="edgeStyle=orthogonalEdgeStyle;rounded=0;orthogonalLoop=1;jettySize=auto;html=1;" edge="1" parent="OFr9_PAlfPfPc9i0mVIv-1" source="OFr9_PAlfPfPc9i0mVIv-3" target="OFr9_PAlfPfPc9i0mVIv-4">
          <mxGeometry relative="1" as="geometry" />
        </mxCell>
        <mxCell id="OFr9_PAlfPfPc9i0mVIv-3" value="&lt;font color=&quot;#000000&quot; style=&quot;font-size: 16px; background-color: rgb(255, 255, 255);&quot;&gt;Paciente&lt;/font&gt;" style="verticalLabelPosition=bottom;sketch=0;html=1;fillColor=#1ba1e2;strokeColor=#006EAF;verticalAlign=top;pointerEvents=1;align=center;shape=mxgraph.cisco_safe.people_places_things_icons.icon9;fontColor=#ffffff;" vertex="1" parent="OFr9_PAlfPfPc9i0mVIv-1">
          <mxGeometry x="70" y="176.5" width="50" height="45" as="geometry" />
        </mxCell>
        <mxCell id="OFr9_PAlfPfPc9i0mVIv-4" value="&lt;font style=&quot;font-size: 16px;&quot;&gt;Health&amp;amp;Med Portal&lt;/font&gt;" style="image;aspect=fixed;html=1;points=[];align=center;fontSize=12;image=img/lib/azure2/app_services/App_Service_Domains.svg;" vertex="1" parent="OFr9_PAlfPfPc9i0mVIv-1">
          <mxGeometry x="207" y="173" width="65" height="52" as="geometry" />
        </mxCell>
        <mxCell id="OFr9_PAlfPfPc9i0mVIv-5" value="&lt;span style=&quot;font-size: 16px; background-color: rgb(255, 255, 255);&quot;&gt;Health&amp;amp;Med API&lt;/span&gt;" style="sketch=0;html=1;aspect=fixed;strokeColor=none;shadow=0;fillColor=#1BA1E2;verticalAlign=top;labelPosition=center;verticalLabelPosition=bottom;shape=mxgraph.gcp2.gear" vertex="1" parent="OFr9_PAlfPfPc9i0mVIv-1">
          <mxGeometry x="400" y="162" width="70" height="70" as="geometry" />
        </mxCell>
        <mxCell id="OFr9_PAlfPfPc9i0mVIv-6" value="Post" style="html=1;whiteSpace=wrap;strokeColor=none;fillColor=#0079D6;labelPosition=center;verticalLabelPosition=middle;verticalAlign=top;align=center;fontSize=12;outlineConnect=0;spacingTop=-6;fontColor=#FFFFFF;sketch=0;shape=mxgraph.sitemap.post;" vertex="1" parent="OFr9_PAlfPfPc9i0mVIv-1">
          <mxGeometry x="560" y="164" width="120" height="66.5" as="geometry" />
        </mxCell>
        <mxCell id="OFr9_PAlfPfPc9i0mVIv-7" value="&lt;font style=&quot;font-size: 16px; background-color: rgb(255, 255, 255);&quot;&gt;/authentication/login&lt;/font&gt;" style="text;html=1;align=center;verticalAlign=middle;resizable=0;points=[];autosize=1;strokeColor=none;fillColor=none;" vertex="1" parent="OFr9_PAlfPfPc9i0mVIv-1">
          <mxGeometry x="535" y="234" width="170" height="30" as="geometry" />
        </mxCell>
        <mxCell id="OFr9_PAlfPfPc9i0mVIv-8" style="edgeStyle=orthogonalEdgeStyle;rounded=0;orthogonalLoop=1;jettySize=auto;html=1;" edge="1" parent="OFr9_PAlfPfPc9i0mVIv-1" source="OFr9_PAlfPfPc9i0mVIv-9" target="OFr9_PAlfPfPc9i0mVIv-11">
          <mxGeometry relative="1" as="geometry" />
        </mxCell>
        <mxCell id="OFr9_PAlfPfPc9i0mVIv-9" value="Post" style="html=1;whiteSpace=wrap;strokeColor=none;fillColor=#0079D6;labelPosition=center;verticalLabelPosition=middle;verticalAlign=top;align=center;fontSize=12;outlineConnect=0;spacingTop=-6;fontColor=#FFFFFF;sketch=0;shape=mxgraph.sitemap.post;" vertex="1" parent="OFr9_PAlfPfPc9i0mVIv-1">
          <mxGeometry x="860" y="164" width="120" height="66.5" as="geometry" />
        </mxCell>
        <mxCell id="OFr9_PAlfPfPc9i0mVIv-10" value="&lt;font style=&quot;font-size: 16px; background-color: rgb(255, 255, 255);&quot;&gt;/doctor/{idUserDoctor}/appointments/{idAppointment}&lt;/font&gt;" style="text;html=1;align=center;verticalAlign=middle;resizable=0;points=[];autosize=1;strokeColor=none;fillColor=none;" vertex="1" parent="OFr9_PAlfPfPc9i0mVIv-1">
          <mxGeometry x="714" y="234" width="400" height="30" as="geometry" />
        </mxCell>
        <mxCell id="OFr9_PAlfPfPc9i0mVIv-11" value="&lt;font style=&quot;font-size: 16px; background-color: rgb(255, 255, 255);&quot;&gt;Banco de Dados&lt;/font&gt;" style="sketch=0;outlineConnect=0;fontColor=#232F3E;gradientColor=none;fillColor=#1BA1E2;strokeColor=none;dashed=0;verticalLabelPosition=bottom;verticalAlign=top;align=center;html=1;fontSize=12;fontStyle=0;aspect=fixed;pointerEvents=1;shape=mxgraph.aws4.rds_sql_server_instance;" vertex="1" parent="OFr9_PAlfPfPc9i0mVIv-1">
          <mxGeometry x="1172" y="157.5" width="78" height="78" as="geometry" />
        </mxCell>
        <mxCell id="OFr9_PAlfPfPc9i0mVIv-12" style="edgeStyle=orthogonalEdgeStyle;rounded=0;orthogonalLoop=1;jettySize=auto;html=1;entryX=-0.012;entryY=0.528;entryDx=0;entryDy=0;entryPerimeter=0;" edge="1" parent="OFr9_PAlfPfPc9i0mVIv-1" source="OFr9_PAlfPfPc9i0mVIv-4" target="OFr9_PAlfPfPc9i0mVIv-5">
          <mxGeometry relative="1" as="geometry" />
        </mxCell>
        <mxCell id="OFr9_PAlfPfPc9i0mVIv-13" style="edgeStyle=orthogonalEdgeStyle;rounded=0;orthogonalLoop=1;jettySize=auto;html=1;entryX=0;entryY=0.5;entryDx=0;entryDy=0;entryPerimeter=0;" edge="1" parent="OFr9_PAlfPfPc9i0mVIv-1" source="OFr9_PAlfPfPc9i0mVIv-5" target="OFr9_PAlfPfPc9i0mVIv-6">
          <mxGeometry relative="1" as="geometry" />
        </mxCell>
        <mxCell id="OFr9_PAlfPfPc9i0mVIv-14" style="edgeStyle=orthogonalEdgeStyle;rounded=0;orthogonalLoop=1;jettySize=auto;html=1;entryX=0;entryY=0.5;entryDx=0;entryDy=0;entryPerimeter=0;" edge="1" parent="OFr9_PAlfPfPc9i0mVIv-1" source="OFr9_PAlfPfPc9i0mVIv-6" target="OFr9_PAlfPfPc9i0mVIv-9">
          <mxGeometry relative="1" as="geometry" />
        </mxCell>
        <mxCell id="OFr9_PAlfPfPc9i0mVIv-17" value="&lt;b&gt;&lt;font style=&quot;font-size: 14px;&quot;&gt;1&lt;/font&gt;&lt;/b&gt;" style="text;html=1;align=center;verticalAlign=middle;resizable=0;points=[];autosize=1;strokeColor=none;fillColor=#FFFFFF;" vertex="1" parent="OFr9_PAlfPfPc9i0mVIv-1">
          <mxGeometry x="140" y="166" width="30" height="30" as="geometry" />
        </mxCell>
        <mxCell id="OFr9_PAlfPfPc9i0mVIv-18" value="&lt;b&gt;&lt;font style=&quot;font-size: 14px;&quot;&gt;2&lt;/font&gt;&lt;/b&gt;" style="text;html=1;align=center;verticalAlign=middle;resizable=0;points=[];autosize=1;strokeColor=none;fillColor=#FFFFFF;" vertex="1" parent="OFr9_PAlfPfPc9i0mVIv-1">
          <mxGeometry x="320" y="162" width="30" height="30" as="geometry" />
        </mxCell>
        <mxCell id="OFr9_PAlfPfPc9i0mVIv-19" value="&lt;b&gt;&lt;font style=&quot;font-size: 14px;&quot;&gt;2&lt;/font&gt;&lt;/b&gt;" style="text;html=1;align=center;verticalAlign=middle;resizable=0;points=[];autosize=1;strokeColor=none;fillColor=#FFFFFF;" vertex="1" parent="OFr9_PAlfPfPc9i0mVIv-1">
          <mxGeometry x="493" y="157.5" width="30" height="30" as="geometry" />
        </mxCell>
        <mxCell id="OFr9_PAlfPfPc9i0mVIv-20" value="&lt;b&gt;&lt;font style=&quot;font-size: 14px;&quot;&gt;3&lt;/font&gt;&lt;/b&gt;" style="text;html=1;align=center;verticalAlign=middle;resizable=0;points=[];autosize=1;strokeColor=none;fillColor=#FFFFFF;" vertex="1" parent="OFr9_PAlfPfPc9i0mVIv-1">
          <mxGeometry x="730" y="155.5" width="30" height="30" as="geometry" />
        </mxCell>
        <mxCell id="OFr9_PAlfPfPc9i0mVIv-21" value="&lt;b&gt;&lt;font style=&quot;font-size: 14px;&quot;&gt;4&lt;/font&gt;&lt;/b&gt;" style="text;html=1;align=center;verticalAlign=middle;resizable=0;points=[];autosize=1;strokeColor=none;fillColor=#FFFFFF;" vertex="1" parent="OFr9_PAlfPfPc9i0mVIv-1">
          <mxGeometry x="1056" y="155.5" width="30" height="30" as="geometry" />
        </mxCell>
        <mxCell id="OFr9_PAlfPfPc9i0mVIv-24" value="" style="rounded=1;whiteSpace=wrap;html=1;fillColor=default;" vertex="1" parent="OFr9_PAlfPfPc9i0mVIv-1">
          <mxGeometry x="60" y="330" width="900" height="200" as="geometry" />
        </mxCell>
        <mxCell id="OFr9_PAlfPfPc9i0mVIv-25" value="&lt;font style=&quot;font-size: 16px;&quot;&gt;&lt;font style=&quot;font-size: 16px;&quot;&gt;&lt;b style=&quot;&quot;&gt;1. &lt;/b&gt;Paciente acessa o &lt;/font&gt;&lt;span style=&quot;background-color: rgb(255, 255, 255);&quot;&gt;Health&amp;amp;Med Portal;&lt;/span&gt;&lt;/font&gt;&lt;div style=&quot;font-size: 16px;&quot;&gt;&lt;font style=&quot;font-size: 16px;&quot;&gt;&lt;span style=&quot;background-color: rgb(255, 255, 255);&quot;&gt;&lt;b&gt;2.&lt;/b&gt;&amp;nbsp;Paciente efetua login pelo endpoint &lt;b&gt;/authentication/login&lt;/b&gt; da Health&amp;amp;Med API;&lt;/span&gt;&lt;/font&gt;&lt;/div&gt;&lt;div style=&quot;font-size: 16px;&quot;&gt;&lt;font style=&quot;font-size: 16px;&quot;&gt;&lt;span style=&quot;background-color: rgb(255, 255, 255);&quot;&gt;&lt;b&gt;3.&lt;/b&gt; Paciente efetua a agendamento de consulta pelo endpoint&amp;nbsp;&amp;nbsp;&lt;/span&gt;&lt;/font&gt;&lt;span style=&quot;text-align: center; background-color: initial;&quot;&gt;&lt;b&gt;/doctor/{idUserDoctor}/appointments/{idAppointment}&lt;/b&gt;&lt;/span&gt;&lt;span style=&quot;background-color: initial; text-align: center;&quot;&gt;;&lt;/span&gt;&lt;/div&gt;&lt;div style=&quot;font-size: 16px;&quot;&gt;&lt;span style=&quot;text-align: center; background-color: initial;&quot;&gt;&lt;span style=&quot;white-space: pre;&quot;&gt;&#x9;&lt;/span&gt;3.1 {idUserDoctor} = Representa o médico no qual o paciente agendou a consulta;&lt;br&gt;&lt;/span&gt;&lt;/div&gt;&lt;div style=&quot;font-size: 16px;&quot;&gt;&lt;span style=&quot;text-align: center; background-color: initial;&quot;&gt;&lt;span style=&quot;white-space: pre;&quot;&gt;&#x9;&lt;/span&gt;3.2&amp;nbsp;&lt;/span&gt;&lt;span style=&quot;text-align: center; background-color: initial;&quot;&gt;{idAppointment} =&amp;nbsp;&lt;/span&gt;&lt;span style=&quot;background-color: initial; text-align: center;&quot;&gt;&amp;nbsp;&lt;/span&gt;&lt;span style=&quot;text-align: center; background-color: initial;&quot;&gt;Representa o horário no qual o paciente deseja agendar a consulta;&lt;/span&gt;&lt;/div&gt;&lt;div style=&quot;font-size: 16px;&quot;&gt;&lt;span style=&quot;text-align: center; background-color: initial;&quot;&gt;&lt;span style=&quot;white-space: pre;&quot;&gt;&#x9;&lt;/span&gt;3.3 Para concretizar o agendamento o médico escolhido não pode ter outras consultas marcadas no mesmo horário.&lt;br&gt;&lt;/span&gt;&lt;/div&gt;&lt;div style=&quot;font-size: 16px;&quot;&gt;&lt;span style=&quot;text-align: center; background-color: initial;&quot;&gt;&lt;b&gt;4.&lt;/b&gt; Informações da consulta agendada são armazenadas no Banco de Dados;&lt;/span&gt;&lt;/div&gt;&lt;div style=&quot;font-size: 16px;&quot;&gt;&lt;span style=&quot;text-align: center; background-color: initial;&quot;&gt;&lt;b&gt;5.&lt;/b&gt;&amp;nbsp;O usuário é notificado via email quanto a confirmação de sua consulta agendada.&lt;/span&gt;&lt;/div&gt;" style="text;html=1;align=left;verticalAlign=middle;resizable=0;points=[];autosize=1;strokeColor=none;fillColor=none;" vertex="1" parent="OFr9_PAlfPfPc9i0mVIv-1">
          <mxGeometry x="80" y="336" width="890" height="170" as="geometry" />
        </mxCell>
        <mxCell id="kYh6YJ27S4kfcGZ6UoV4-4" style="edgeStyle=orthogonalEdgeStyle;rounded=0;orthogonalLoop=1;jettySize=auto;html=1;fillColor=#0050ef;strokeColor=#001DBC;" edge="1" parent="OFr9_PAlfPfPc9i0mVIv-1" source="kYh6YJ27S4kfcGZ6UoV4-1">
          <mxGeometry relative="1" as="geometry">
            <mxPoint x="95" y="250" as="targetPoint" />
            <Array as="points">
              <mxPoint x="1420" y="290" />
              <mxPoint x="95" y="290" />
            </Array>
          </mxGeometry>
        </mxCell>
        <mxCell id="kYh6YJ27S4kfcGZ6UoV4-1" value="Mail" style="html=1;whiteSpace=wrap;strokeColor=none;fillColor=#0079D6;labelPosition=center;verticalLabelPosition=middle;verticalAlign=top;align=center;fontSize=12;outlineConnect=0;spacingTop=-6;fontColor=#FFFFFF;sketch=0;shape=mxgraph.sitemap.mail;" vertex="1" parent="OFr9_PAlfPfPc9i0mVIv-1">
          <mxGeometry x="1360" y="161.5" width="120" height="70" as="geometry" />
        </mxCell>
        <mxCell id="kYh6YJ27S4kfcGZ6UoV4-2" style="edgeStyle=orthogonalEdgeStyle;rounded=0;orthogonalLoop=1;jettySize=auto;html=1;entryX=0;entryY=0.5;entryDx=0;entryDy=0;entryPerimeter=0;fillColor=#0050ef;strokeColor=#001DBC;" edge="1" parent="OFr9_PAlfPfPc9i0mVIv-1" source="OFr9_PAlfPfPc9i0mVIv-11" target="kYh6YJ27S4kfcGZ6UoV4-1">
          <mxGeometry relative="1" as="geometry">
            <Array as="points">
              <mxPoint x="1300" y="197" />
            </Array>
          </mxGeometry>
        </mxCell>
        <mxCell id="kYh6YJ27S4kfcGZ6UoV4-3" value="&lt;b&gt;&lt;font style=&quot;font-size: 14px;&quot;&gt;5&lt;/font&gt;&lt;/b&gt;" style="text;html=1;align=center;verticalAlign=middle;resizable=0;points=[];autosize=1;strokeColor=none;fillColor=#FFFFFF;" vertex="1" parent="OFr9_PAlfPfPc9i0mVIv-1">
          <mxGeometry x="1287" y="151.5" width="30" height="30" as="geometry" />
        </mxCell>
        <mxCell id="kYh6YJ27S4kfcGZ6UoV4-5" value="&lt;b&gt;&lt;font style=&quot;font-size: 14px;&quot;&gt;5&lt;/font&gt;&lt;/b&gt;" style="text;html=1;align=center;verticalAlign=middle;resizable=0;points=[];autosize=1;strokeColor=none;fillColor=#FFFFFF;" vertex="1" parent="OFr9_PAlfPfPc9i0mVIv-1">
          <mxGeometry x="761" y="292" width="30" height="30" as="geometry" />
        </mxCell>
      </root>
    </mxGraphModel>
  </diagram>
  <diagram name="Cadastro Horario" id="Zlau-N5p7F2Ta4_9zntZ">
    <mxGraphModel dx="596" dy="421" grid="1" gridSize="10" guides="1" tooltips="1" connect="1" arrows="1" fold="1" page="0" pageScale="1" pageWidth="850" pageHeight="1100" math="0" shadow="0">
      <root>
        <mxCell id="h3ghL1paQDPckMGcWVCo-0" />
        <mxCell id="h3ghL1paQDPckMGcWVCo-1" parent="h3ghL1paQDPckMGcWVCo-0" />
        <mxCell id="h3ghL1paQDPckMGcWVCo-2" style="edgeStyle=orthogonalEdgeStyle;rounded=0;orthogonalLoop=1;jettySize=auto;html=1;entryX=0;entryY=0.5;entryDx=0;entryDy=0;entryPerimeter=0;" edge="1" parent="h3ghL1paQDPckMGcWVCo-1">
          <mxGeometry relative="1" as="geometry">
            <mxPoint x="120" y="205.9999999999999" as="sourcePoint" />
            <mxPoint x="200" y="206" as="targetPoint" />
          </mxGeometry>
        </mxCell>
        <mxCell id="h3ghL1paQDPckMGcWVCo-3" value="&lt;font style=&quot;font-size: 16px;&quot;&gt;Health&amp;amp;Med Portal&lt;/font&gt;" style="image;aspect=fixed;html=1;points=[];align=center;fontSize=12;image=img/lib/azure2/app_services/App_Service_Domains.svg;" vertex="1" parent="h3ghL1paQDPckMGcWVCo-1">
          <mxGeometry x="207" y="180" width="65" height="52" as="geometry" />
        </mxCell>
        <mxCell id="h3ghL1paQDPckMGcWVCo-4" style="edgeStyle=orthogonalEdgeStyle;rounded=0;orthogonalLoop=1;jettySize=auto;html=1;" edge="1" parent="h3ghL1paQDPckMGcWVCo-1">
          <mxGeometry relative="1" as="geometry">
            <mxPoint x="470" y="204" as="sourcePoint" />
            <mxPoint x="560" y="204" as="targetPoint" />
            <Array as="points">
              <mxPoint x="560" y="204" />
              <mxPoint x="560" y="204" />
            </Array>
          </mxGeometry>
        </mxCell>
        <mxCell id="h3ghL1paQDPckMGcWVCo-5" value="&lt;span style=&quot;font-size: 16px; background-color: rgb(255, 255, 255);&quot;&gt;Health&amp;amp;Med API&lt;/span&gt;" style="sketch=0;html=1;aspect=fixed;strokeColor=none;shadow=0;fillColor=#1BA1E2;verticalAlign=top;labelPosition=center;verticalLabelPosition=bottom;shape=mxgraph.gcp2.gear" vertex="1" parent="h3ghL1paQDPckMGcWVCo-1">
          <mxGeometry x="400" y="164" width="70" height="70" as="geometry" />
        </mxCell>
        <mxCell id="h3ghL1paQDPckMGcWVCo-6" style="edgeStyle=orthogonalEdgeStyle;rounded=0;orthogonalLoop=1;jettySize=auto;html=1;entryX=-0.012;entryY=0.603;entryDx=0;entryDy=0;entryPerimeter=0;" edge="1" parent="h3ghL1paQDPckMGcWVCo-1" source="h3ghL1paQDPckMGcWVCo-3" target="h3ghL1paQDPckMGcWVCo-5">
          <mxGeometry relative="1" as="geometry" />
        </mxCell>
        <mxCell id="h3ghL1paQDPckMGcWVCo-7" style="edgeStyle=orthogonalEdgeStyle;rounded=0;orthogonalLoop=1;jettySize=auto;html=1;" edge="1" parent="h3ghL1paQDPckMGcWVCo-1">
          <mxGeometry relative="1" as="geometry">
            <mxPoint x="680" y="202.22222222222217" as="sourcePoint" />
            <mxPoint x="830" y="203" as="targetPoint" />
          </mxGeometry>
        </mxCell>
        <mxCell id="h3ghL1paQDPckMGcWVCo-8" value="Post" style="html=1;whiteSpace=wrap;strokeColor=none;fillColor=#0079D6;labelPosition=center;verticalLabelPosition=middle;verticalAlign=top;align=center;fontSize=12;outlineConnect=0;spacingTop=-6;fontColor=#FFFFFF;sketch=0;shape=mxgraph.sitemap.post;" vertex="1" parent="h3ghL1paQDPckMGcWVCo-1">
          <mxGeometry x="560" y="166" width="120" height="66.5" as="geometry" />
        </mxCell>
        <mxCell id="h3ghL1paQDPckMGcWVCo-9" value="&lt;font style=&quot;font-size: 16px; background-color: rgb(255, 255, 255);&quot;&gt;/authentication/login&lt;/font&gt;" style="text;html=1;align=center;verticalAlign=middle;resizable=0;points=[];autosize=1;strokeColor=none;fillColor=none;" vertex="1" parent="h3ghL1paQDPckMGcWVCo-1">
          <mxGeometry x="535" y="234" width="170" height="30" as="geometry" />
        </mxCell>
        <mxCell id="h3ghL1paQDPckMGcWVCo-10" value="&lt;b&gt;&lt;font style=&quot;font-size: 14px;&quot;&gt;1&lt;/font&gt;&lt;/b&gt;" style="text;html=1;align=center;verticalAlign=middle;resizable=0;points=[];autosize=1;strokeColor=none;fillColor=#FFFFFF;" vertex="1" parent="h3ghL1paQDPckMGcWVCo-1">
          <mxGeometry x="140" y="166" width="30" height="30" as="geometry" />
        </mxCell>
        <mxCell id="h3ghL1paQDPckMGcWVCo-11" value="&lt;b&gt;&lt;font style=&quot;font-size: 14px;&quot;&gt;2&lt;/font&gt;&lt;/b&gt;" style="text;html=1;align=center;verticalAlign=middle;resizable=0;points=[];autosize=1;strokeColor=none;fillColor=#FFFFFF;" vertex="1" parent="h3ghL1paQDPckMGcWVCo-1">
          <mxGeometry x="310" y="166" width="30" height="30" as="geometry" />
        </mxCell>
        <mxCell id="h3ghL1paQDPckMGcWVCo-12" value="&lt;b&gt;&lt;font style=&quot;font-size: 14px;&quot;&gt;2&lt;/font&gt;&lt;/b&gt;" style="text;html=1;align=center;verticalAlign=middle;resizable=0;points=[];autosize=1;strokeColor=none;fillColor=#FFFFFF;" vertex="1" parent="h3ghL1paQDPckMGcWVCo-1">
          <mxGeometry x="492" y="164" width="30" height="30" as="geometry" />
        </mxCell>
        <mxCell id="h3ghL1paQDPckMGcWVCo-13" value="" style="rounded=1;whiteSpace=wrap;html=1;fillColor=default;" vertex="1" parent="h3ghL1paQDPckMGcWVCo-1">
          <mxGeometry x="40" y="264" width="780" height="200" as="geometry" />
        </mxCell>
        <mxCell id="h3ghL1paQDPckMGcWVCo-15" value="&lt;font style=&quot;font-size: 16px;&quot;&gt;&lt;b&gt;1.&amp;nbsp;&lt;/b&gt;Médico acessa o&amp;nbsp;Health&amp;amp;Med Portal;&lt;/font&gt;&lt;div style=&quot;font-size: 16px;&quot;&gt;&lt;b&gt;2.&lt;/b&gt;&amp;nbsp;Médico efetua login pelo endpoint&amp;nbsp;&lt;b&gt;/authentication/login&lt;/b&gt;&amp;nbsp;da Health&amp;amp;Med API;&lt;/div&gt;&lt;div style=&quot;font-size: 16px;&quot;&gt;&lt;b&gt;3.&lt;/b&gt;&amp;nbsp;Médico efetua o cadastro de seus horários disponíveis para atendimento via endpoint&amp;nbsp;&amp;nbsp;&lt;span style=&quot;text-align: center; background-color: initial;&quot;&gt;&lt;b&gt;/schedules&lt;/b&gt;;&lt;/span&gt;&lt;/div&gt;&lt;div style=&quot;font-size: 16px;&quot;&gt;&lt;span style=&quot;text-align: center; background-color: initial;&quot;&gt;&lt;span style=&quot;white-space-collapse: preserve;&quot;&gt;&#x9;&lt;/span&gt;3.1 Sempre deve ser informado as datas e horários iniciais e finais de disponibilidade da agenda;&lt;/span&gt;&lt;/div&gt;&lt;div style=&quot;font-size: 16px;&quot;&gt;&lt;span style=&quot;text-align: center; background-color: initial;&quot;&gt;&lt;span style=&quot;white-space: pre;&quot;&gt;&#x9;&lt;/span&gt;3.2 O médico pode cadastrar mais de um horário disponível se desejar.&amp;nbsp;&amp;nbsp;&lt;/span&gt;&lt;/div&gt;&lt;div style=&quot;font-size: 16px;&quot;&gt;&lt;b style=&quot;background-color: initial; text-align: center;&quot;&gt;4.&lt;/b&gt;&lt;span style=&quot;background-color: initial; text-align: center;&quot;&gt;&amp;nbsp;As agendas disponíveis para agendamento de consultas são armazenadas no Banco de Dados.&lt;/span&gt;&lt;/div&gt;" style="text;html=1;align=left;verticalAlign=middle;resizable=0;points=[];autosize=1;strokeColor=none;fillColor=none;" vertex="1" parent="h3ghL1paQDPckMGcWVCo-1">
          <mxGeometry x="60" y="297" width="750" height="130" as="geometry" />
        </mxCell>
        <mxCell id="h3ghL1paQDPckMGcWVCo-16" value="&lt;b&gt;&lt;font style=&quot;font-size: 14px;&quot;&gt;3&lt;/font&gt;&lt;/b&gt;" style="text;html=1;align=center;verticalAlign=middle;resizable=0;points=[];autosize=1;strokeColor=none;fillColor=#FFFFFF;" vertex="1" parent="h3ghL1paQDPckMGcWVCo-1">
          <mxGeometry x="740" y="161" width="30" height="30" as="geometry" />
        </mxCell>
        <mxCell id="h3ghL1paQDPckMGcWVCo-17" value="&lt;font style=&quot;font-size: 15px; background-color: rgb(255, 255, 255);&quot;&gt;Médico&lt;/font&gt;" style="shape=mxgraph.signs.healthcare.care_staff_area;html=1;pointerEvents=1;fillColor=#1BA1E2;strokeColor=none;verticalLabelPosition=bottom;verticalAlign=top;align=center;" vertex="1" parent="h3ghL1paQDPckMGcWVCo-1">
          <mxGeometry x="50" y="164" width="67" height="72" as="geometry" />
        </mxCell>
        <mxCell id="hufn08w85xC7T0dEl8H2-0" value="Post" style="html=1;whiteSpace=wrap;strokeColor=none;fillColor=#0079D6;labelPosition=center;verticalLabelPosition=middle;verticalAlign=top;align=center;fontSize=12;outlineConnect=0;spacingTop=-6;fontColor=#FFFFFF;sketch=0;shape=mxgraph.sitemap.post;" vertex="1" parent="h3ghL1paQDPckMGcWVCo-1">
          <mxGeometry x="830" y="164" width="120" height="66.5" as="geometry" />
        </mxCell>
        <mxCell id="hufn08w85xC7T0dEl8H2-1" value="&lt;font style=&quot;font-size: 16px; background-color: rgb(255, 255, 255);&quot;&gt;/schedules&lt;/font&gt;" style="text;html=1;align=center;verticalAlign=middle;resizable=0;points=[];autosize=1;strokeColor=none;fillColor=none;" vertex="1" parent="h3ghL1paQDPckMGcWVCo-1">
          <mxGeometry x="841" y="232.5" width="100" height="30" as="geometry" />
        </mxCell>
        <mxCell id="Cc98uMMERYUUeg_N9Ji3-0" style="edgeStyle=orthogonalEdgeStyle;rounded=0;orthogonalLoop=1;jettySize=auto;html=1;" edge="1" parent="h3ghL1paQDPckMGcWVCo-1">
          <mxGeometry relative="1" as="geometry">
            <mxPoint x="950" y="203.22222222222217" as="sourcePoint" />
            <mxPoint x="1100" y="204" as="targetPoint" />
          </mxGeometry>
        </mxCell>
        <mxCell id="Cc98uMMERYUUeg_N9Ji3-1" value="&lt;font style=&quot;font-size: 16px; background-color: rgb(255, 255, 255);&quot;&gt;Banco de Dados&lt;/font&gt;" style="sketch=0;outlineConnect=0;fontColor=#232F3E;gradientColor=none;fillColor=#1BA1E2;strokeColor=none;dashed=0;verticalLabelPosition=bottom;verticalAlign=top;align=center;html=1;fontSize=12;fontStyle=0;aspect=fixed;pointerEvents=1;shape=mxgraph.aws4.rds_sql_server_instance;" vertex="1" parent="h3ghL1paQDPckMGcWVCo-1">
          <mxGeometry x="1100" y="157" width="78" height="78" as="geometry" />
        </mxCell>
        <mxCell id="Cc98uMMERYUUeg_N9Ji3-2" value="&lt;b&gt;&lt;font style=&quot;font-size: 14px;&quot;&gt;4&lt;/font&gt;&lt;/b&gt;" style="text;html=1;align=center;verticalAlign=middle;resizable=0;points=[];autosize=1;strokeColor=none;fillColor=#FFFFFF;" vertex="1" parent="h3ghL1paQDPckMGcWVCo-1">
          <mxGeometry x="1020" y="157" width="30" height="30" as="geometry" />
        </mxCell>
      </root>
    </mxGraphModel>
  </diagram>
  <diagram name="Atualizar Horario" id="DG3wlhErfcbPBfL6RTle">
    <mxGraphModel dx="596" dy="421" grid="1" gridSize="10" guides="1" tooltips="1" connect="1" arrows="1" fold="1" page="0" pageScale="1" pageWidth="850" pageHeight="1100" math="0" shadow="0">
      <root>
        <mxCell id="XoGKB1BWZfZtzPjDa8wk-0" />
        <mxCell id="XoGKB1BWZfZtzPjDa8wk-1" parent="XoGKB1BWZfZtzPjDa8wk-0" />
        <mxCell id="XoGKB1BWZfZtzPjDa8wk-2" style="edgeStyle=orthogonalEdgeStyle;rounded=0;orthogonalLoop=1;jettySize=auto;html=1;entryX=0;entryY=0.5;entryDx=0;entryDy=0;entryPerimeter=0;" edge="1" parent="XoGKB1BWZfZtzPjDa8wk-1">
          <mxGeometry relative="1" as="geometry">
            <mxPoint x="120" y="205.9999999999999" as="sourcePoint" />
            <mxPoint x="200" y="206" as="targetPoint" />
          </mxGeometry>
        </mxCell>
        <mxCell id="XoGKB1BWZfZtzPjDa8wk-3" value="&lt;font style=&quot;font-size: 16px;&quot;&gt;Health&amp;amp;Med Portal&lt;/font&gt;" style="image;aspect=fixed;html=1;points=[];align=center;fontSize=12;image=img/lib/azure2/app_services/App_Service_Domains.svg;" vertex="1" parent="XoGKB1BWZfZtzPjDa8wk-1">
          <mxGeometry x="207" y="180" width="65" height="52" as="geometry" />
        </mxCell>
        <mxCell id="XoGKB1BWZfZtzPjDa8wk-4" style="edgeStyle=orthogonalEdgeStyle;rounded=0;orthogonalLoop=1;jettySize=auto;html=1;" edge="1" parent="XoGKB1BWZfZtzPjDa8wk-1">
          <mxGeometry relative="1" as="geometry">
            <mxPoint x="470" y="204" as="sourcePoint" />
            <mxPoint x="560" y="204" as="targetPoint" />
            <Array as="points">
              <mxPoint x="560" y="204" />
              <mxPoint x="560" y="204" />
            </Array>
          </mxGeometry>
        </mxCell>
        <mxCell id="XoGKB1BWZfZtzPjDa8wk-5" value="&lt;span style=&quot;font-size: 16px; background-color: rgb(255, 255, 255);&quot;&gt;Health&amp;amp;Med API&lt;/span&gt;" style="sketch=0;html=1;aspect=fixed;strokeColor=none;shadow=0;fillColor=#1BA1E2;verticalAlign=top;labelPosition=center;verticalLabelPosition=bottom;shape=mxgraph.gcp2.gear" vertex="1" parent="XoGKB1BWZfZtzPjDa8wk-1">
          <mxGeometry x="400" y="164" width="70" height="70" as="geometry" />
        </mxCell>
        <mxCell id="XoGKB1BWZfZtzPjDa8wk-6" style="edgeStyle=orthogonalEdgeStyle;rounded=0;orthogonalLoop=1;jettySize=auto;html=1;entryX=-0.012;entryY=0.603;entryDx=0;entryDy=0;entryPerimeter=0;" edge="1" parent="XoGKB1BWZfZtzPjDa8wk-1" source="XoGKB1BWZfZtzPjDa8wk-3" target="XoGKB1BWZfZtzPjDa8wk-5">
          <mxGeometry relative="1" as="geometry" />
        </mxCell>
        <mxCell id="XoGKB1BWZfZtzPjDa8wk-7" style="edgeStyle=orthogonalEdgeStyle;rounded=0;orthogonalLoop=1;jettySize=auto;html=1;" edge="1" parent="XoGKB1BWZfZtzPjDa8wk-1">
          <mxGeometry relative="1" as="geometry">
            <mxPoint x="680" y="202.22222222222217" as="sourcePoint" />
            <mxPoint x="830" y="203" as="targetPoint" />
          </mxGeometry>
        </mxCell>
        <mxCell id="XoGKB1BWZfZtzPjDa8wk-8" value="Post" style="html=1;whiteSpace=wrap;strokeColor=none;fillColor=#0079D6;labelPosition=center;verticalLabelPosition=middle;verticalAlign=top;align=center;fontSize=12;outlineConnect=0;spacingTop=-6;fontColor=#FFFFFF;sketch=0;shape=mxgraph.sitemap.post;" vertex="1" parent="XoGKB1BWZfZtzPjDa8wk-1">
          <mxGeometry x="560" y="166" width="120" height="66.5" as="geometry" />
        </mxCell>
        <mxCell id="XoGKB1BWZfZtzPjDa8wk-9" value="&lt;font style=&quot;font-size: 16px; background-color: rgb(255, 255, 255);&quot;&gt;/authentication/login&lt;/font&gt;" style="text;html=1;align=center;verticalAlign=middle;resizable=0;points=[];autosize=1;strokeColor=none;fillColor=none;" vertex="1" parent="XoGKB1BWZfZtzPjDa8wk-1">
          <mxGeometry x="535" y="234" width="170" height="30" as="geometry" />
        </mxCell>
        <mxCell id="XoGKB1BWZfZtzPjDa8wk-10" value="&lt;b&gt;&lt;font style=&quot;font-size: 14px;&quot;&gt;1&lt;/font&gt;&lt;/b&gt;" style="text;html=1;align=center;verticalAlign=middle;resizable=0;points=[];autosize=1;strokeColor=none;fillColor=#FFFFFF;" vertex="1" parent="XoGKB1BWZfZtzPjDa8wk-1">
          <mxGeometry x="140" y="166" width="30" height="30" as="geometry" />
        </mxCell>
        <mxCell id="XoGKB1BWZfZtzPjDa8wk-11" value="&lt;b&gt;&lt;font style=&quot;font-size: 14px;&quot;&gt;2&lt;/font&gt;&lt;/b&gt;" style="text;html=1;align=center;verticalAlign=middle;resizable=0;points=[];autosize=1;strokeColor=none;fillColor=#FFFFFF;" vertex="1" parent="XoGKB1BWZfZtzPjDa8wk-1">
          <mxGeometry x="310" y="166" width="30" height="30" as="geometry" />
        </mxCell>
        <mxCell id="XoGKB1BWZfZtzPjDa8wk-12" value="&lt;b&gt;&lt;font style=&quot;font-size: 14px;&quot;&gt;2&lt;/font&gt;&lt;/b&gt;" style="text;html=1;align=center;verticalAlign=middle;resizable=0;points=[];autosize=1;strokeColor=none;fillColor=#FFFFFF;" vertex="1" parent="XoGKB1BWZfZtzPjDa8wk-1">
          <mxGeometry x="492" y="164" width="30" height="30" as="geometry" />
        </mxCell>
        <mxCell id="XoGKB1BWZfZtzPjDa8wk-13" value="" style="rounded=1;whiteSpace=wrap;html=1;fillColor=default;" vertex="1" parent="XoGKB1BWZfZtzPjDa8wk-1">
          <mxGeometry x="40" y="264" width="860" height="200" as="geometry" />
        </mxCell>
        <mxCell id="XoGKB1BWZfZtzPjDa8wk-14" value="&lt;font style=&quot;font-size: 16px;&quot;&gt;&lt;b&gt;1.&amp;nbsp;&lt;/b&gt;Médico acessa o&amp;nbsp;Health&amp;amp;Med Portal;&lt;/font&gt;&lt;div style=&quot;font-size: 16px;&quot;&gt;&lt;b&gt;2.&lt;/b&gt;&amp;nbsp;Médico efetua login pelo endpoint&amp;nbsp;&lt;b&gt;/authentication/login&lt;/b&gt;&amp;nbsp;da Health&amp;amp;Med API;&lt;/div&gt;&lt;div style=&quot;font-size: 16px;&quot;&gt;&lt;b&gt;3.&lt;/b&gt;&amp;nbsp;Médico efetua a atualização de seu horários disponível para atendimento via endpoint&amp;nbsp;&amp;nbsp;&lt;span style=&quot;text-align: center; background-color: initial;&quot;&gt;&lt;b&gt;/schedules/{scheduleId}&lt;/b&gt;;&lt;/span&gt;&lt;/div&gt;&lt;div style=&quot;font-size: 16px;&quot;&gt;&lt;span style=&quot;text-align: center; background-color: initial;&quot;&gt;&lt;span style=&quot;white-space-collapse: preserve;&quot;&gt;&#x9;&lt;/span&gt;3.1 Sempre deve ser informado as datas e horários iniciais e finais de disponibilidade da agenda;&lt;/span&gt;&lt;/div&gt;&lt;div style=&quot;font-size: 16px;&quot;&gt;&lt;span style=&quot;text-align: center; background-color: initial;&quot;&gt;&lt;span style=&quot;white-space: pre;&quot;&gt;&#x9;&lt;/span&gt;3.2 Também deve ser informado o ID da agenda que o médico deseja atualizar pelo parâmetro {scheduleId}.&amp;nbsp; &amp;nbsp;&amp;nbsp;&lt;/span&gt;&lt;/div&gt;&lt;div style=&quot;font-size: 16px;&quot;&gt;&lt;b style=&quot;background-color: initial; text-align: center;&quot;&gt;4.&lt;/b&gt;&lt;span style=&quot;background-color: initial; text-align: center;&quot;&gt;&amp;nbsp;As agendas disponíveis para agendamento de consultas são atualizadas no Banco de Dados.&lt;/span&gt;&lt;/div&gt;" style="text;html=1;align=left;verticalAlign=middle;resizable=0;points=[];autosize=1;strokeColor=none;fillColor=none;" vertex="1" parent="XoGKB1BWZfZtzPjDa8wk-1">
          <mxGeometry x="60" y="297" width="850" height="130" as="geometry" />
        </mxCell>
        <mxCell id="XoGKB1BWZfZtzPjDa8wk-15" value="&lt;b&gt;&lt;font style=&quot;font-size: 14px;&quot;&gt;3&lt;/font&gt;&lt;/b&gt;" style="text;html=1;align=center;verticalAlign=middle;resizable=0;points=[];autosize=1;strokeColor=none;fillColor=#FFFFFF;" vertex="1" parent="XoGKB1BWZfZtzPjDa8wk-1">
          <mxGeometry x="740" y="161" width="30" height="30" as="geometry" />
        </mxCell>
        <mxCell id="XoGKB1BWZfZtzPjDa8wk-16" value="&lt;font style=&quot;font-size: 15px; background-color: rgb(255, 255, 255);&quot;&gt;Médico&lt;/font&gt;" style="shape=mxgraph.signs.healthcare.care_staff_area;html=1;pointerEvents=1;fillColor=#1BA1E2;strokeColor=none;verticalLabelPosition=bottom;verticalAlign=top;align=center;" vertex="1" parent="XoGKB1BWZfZtzPjDa8wk-1">
          <mxGeometry x="50" y="164" width="67" height="72" as="geometry" />
        </mxCell>
        <mxCell id="XoGKB1BWZfZtzPjDa8wk-17" value="Put" style="html=1;whiteSpace=wrap;strokeColor=none;fillColor=#0079D6;labelPosition=center;verticalLabelPosition=middle;verticalAlign=top;align=center;fontSize=12;outlineConnect=0;spacingTop=-6;fontColor=#FFFFFF;sketch=0;shape=mxgraph.sitemap.post;" vertex="1" parent="XoGKB1BWZfZtzPjDa8wk-1">
          <mxGeometry x="830" y="164" width="120" height="66.5" as="geometry" />
        </mxCell>
        <mxCell id="XoGKB1BWZfZtzPjDa8wk-18" value="&lt;font style=&quot;font-size: 16px; background-color: rgb(255, 255, 255);&quot;&gt;/schedules/{scheduleId}&lt;/font&gt;" style="text;html=1;align=center;verticalAlign=middle;resizable=0;points=[];autosize=1;strokeColor=none;fillColor=none;" vertex="1" parent="XoGKB1BWZfZtzPjDa8wk-1">
          <mxGeometry x="796" y="232.5" width="190" height="30" as="geometry" />
        </mxCell>
        <mxCell id="XoGKB1BWZfZtzPjDa8wk-19" style="edgeStyle=orthogonalEdgeStyle;rounded=0;orthogonalLoop=1;jettySize=auto;html=1;" edge="1" parent="XoGKB1BWZfZtzPjDa8wk-1">
          <mxGeometry relative="1" as="geometry">
            <mxPoint x="950" y="203.22222222222217" as="sourcePoint" />
            <mxPoint x="1100" y="204" as="targetPoint" />
          </mxGeometry>
        </mxCell>
        <mxCell id="XoGKB1BWZfZtzPjDa8wk-20" value="&lt;font style=&quot;font-size: 16px; background-color: rgb(255, 255, 255);&quot;&gt;Banco de Dados&lt;/font&gt;" style="sketch=0;outlineConnect=0;fontColor=#232F3E;gradientColor=none;fillColor=#1BA1E2;strokeColor=none;dashed=0;verticalLabelPosition=bottom;verticalAlign=top;align=center;html=1;fontSize=12;fontStyle=0;aspect=fixed;pointerEvents=1;shape=mxgraph.aws4.rds_sql_server_instance;" vertex="1" parent="XoGKB1BWZfZtzPjDa8wk-1">
          <mxGeometry x="1100" y="157" width="78" height="78" as="geometry" />
        </mxCell>
        <mxCell id="XoGKB1BWZfZtzPjDa8wk-21" value="&lt;b&gt;&lt;font style=&quot;font-size: 14px;&quot;&gt;4&lt;/font&gt;&lt;/b&gt;" style="text;html=1;align=center;verticalAlign=middle;resizable=0;points=[];autosize=1;strokeColor=none;fillColor=#FFFFFF;" vertex="1" parent="XoGKB1BWZfZtzPjDa8wk-1">
          <mxGeometry x="1020" y="157" width="30" height="30" as="geometry" />
        </mxCell>
      </root>
    </mxGraphModel>
  </diagram>
</mxfile>
